<svg fill="none" height="100%" width="100%" viewBox="0 0 952 784" xmlns:xlink="http://www.w3.org/1999/xlink" xmlns="http://www.w3.org/2000/svg"><defs><linearGradient id="i0" gradientUnits="userSpaceOnUse" spreadMethod="pad" x2="-1" y2="29" x1="-1" y1="-23"><stop offset="0%" stop-color="#0b4f6c" /><stop offset="50%" stop-color="#6092b0" /><stop offset="100%" stop-color="#b5d6f4" /></linearGradient><linearGradient id="i1" gradientUnits="userSpaceOnUse" spreadMethod="pad" x2="72" y2="0" x1="-96" y1="-4"><stop offset="0%" stop-color="#0b4f6c" /><stop offset="50%" stop-color="#6092b0" /><stop offset="100%" stop-color="#b5d6f4" /></linearGradient><linearGradient id="i2" gradientUnits="userSpaceOnUse" spreadMethod="pad" x2="93" y2="2" x1="-210" y1="3"><stop offset="0%" stop-color="#0b4f6c" /><stop offset="50%" stop-color="#6092b0" /><stop offset="100%" stop-color="#b5d6f4" /></linearGradient><linearGradient id="i3" gradientUnits="userSpaceOnUse" spreadMethod="pad" x2="-1.716" y2="53.741" x1="1.631" y1="-73.168"><stop offset="0%" stop-color="#0b4f6c" /><stop offset="50%" stop-color="#6092b0" /><stop offset="100%" stop-color="#b5d6f4" /></linearGradient><linearGradient id="i4" gradientUnits="userSpaceOnUse" spreadMethod="pad" x2="-1.716" y2="53.741" x1="1.631" y1="-73.168"><stop offset="0%" stop-color="#0b4f6c" /><stop offset="50%" stop-color="#6092b0" /><stop offset="100%" stop-color="#b5d6f4" /></linearGradient><linearGradient id="i5" gradientUnits="userSpaceOnUse" spreadMethod="pad" x2="-167.75" y2="-135.5" x1="-144" y1="-109"><stop offset="0%" stop-color="#7afffb" /><stop offset="50%" stop-color="#47adcd" /><stop offset="100%" stop-color="#145c9e" /></linearGradient><linearGradient id="i6" gradientUnits="userSpaceOnUse" spreadMethod="pad" x2="0" y2="91" x1="3" y1="-84"><stop offset="0%" stop-color="#7afffb" /><stop offset="50%" stop-color="#47adcd" /><stop offset="100%" stop-color="#145c9e" /></linearGradient><linearGradient id="i7" gradientUnits="userSpaceOnUse" spreadMethod="pad" x2="100" y2="0" x1="0" y1="0"><stop offset="0%" stop-color="#7afffb" /><stop offset="50%" stop-color="#47adcd" /><stop offset="100%" stop-color="#145c9e" /></linearGradient><linearGradient id="i8" gradientUnits="userSpaceOnUse" spreadMethod="pad" x2="100" y2="0" x1="0" y1="0"><stop offset="0%" stop-color="#7afffb" /><stop offset="50%" stop-color="#47adcd" /><stop offset="100%" stop-color="#145c9e" /></linearGradient><linearGradient id="i9" gradientUnits="userSpaceOnUse" spreadMethod="pad" x2="100" y2="0" x1="0" y1="0"><stop offset="0%" stop-color="#7afffb" /><stop offset="50%" stop-color="#47adcd" /><stop offset="100%" stop-color="#145c9e" /></linearGradient><linearGradient id="i10" gradientUnits="userSpaceOnUse" spreadMethod="pad" x2="-167.75" y2="-135.5" x1="-144" y1="-109"><stop offset="0%" stop-color="#7afffb" /><stop offset="50%" stop-color="#47adcd" /><stop offset="100%" stop-color="#145c9e" /></linearGradient><linearGradient id="i11" gradientUnits="userSpaceOnUse" spreadMethod="pad" x2="-66.084" y2="25.63" x1="88.398" y1="-27.639"><stop offset="0%" stop-color="#7afffb" /><stop offset="50%" stop-color="#47adcd" /><stop offset="100%" stop-color="#145c9e" /></linearGradient><linearGradient id="i12" gradientUnits="userSpaceOnUse" spreadMethod="pad" x2="-167.75" y2="-135.5" x1="-144" y1="-109"><stop offset="0%" stop-color="#7afffb" /><stop offset="50%" stop-color="#47adcd" /><stop offset="100%" stop-color="#145c9e" /></linearGradient><linearGradient id="i13" gradientUnits="userSpaceOnUse" spreadMethod="pad" x2="6.629" y2="-79.912" x1="-14.336" y1="72.452"><stop offset="0%" stop-color="#7afffb" /><stop offset="50%" stop-color="#47adcd" /><stop offset="100%" stop-color="#145c9e" /></linearGradient><linearGradient id="i14" gradientUnits="userSpaceOnUse" spreadMethod="pad" x2="-167.75" y2="-135.5" x1="-144" y1="-109"><stop offset="0%" stop-color="#7afffb" /><stop offset="50%" stop-color="#47adcd" /><stop offset="100%" stop-color="#145c9e" /></linearGradient><linearGradient id="i15" gradientUnits="userSpaceOnUse" spreadMethod="pad" x2="77.236" y2="20.693" x1="-79.376" y1="-17.338"><stop offset="0%" stop-color="#7afffb" /><stop offset="50%" stop-color="#47adcd" /><stop offset="100%" stop-color="#145c9e" /></linearGradient></defs><g id="i16"><g transform="translate(487.5,509.75)"><animateTransform repeatCount="indefinite" type="translate" attributeName="transform" dur="2.867s" begin="0s" calcMode="spline" values="487.5 509.75; 487.5 449.75; 487.5 449.75; 487.5 509.75; 487.5 509.75; 501.5 509.75; 501.5 509.75; 472.5 509.75; 472.5 509.75; 487.5 509.75; 487.5 509.75" keyTimes="0; 0.174419; 0.197675; 0.325581; 0.348837; 0.523256; 0.569767; 0.744186; 0.779069; 0.872093; 1" keySplines="0.333 0 0.667 1; 0 0 1 1; 0.333 0 0.667 1; 0 0 1 1; 0.333 0 0.667 1; 0 0 1 1; 0.333 0 0.667 1; 0 0 1 1; 0.333 0 0.667 1; 0 0 1 1" fill="freeze" /><g transform="scale(1,1) translate(0.5,-108.25)"><g id="i17"><g transform="translate(0.625,143.665)"><animateTransform repeatCount="indefinite" type="translate" attributeName="transform" dur="2.867s" begin="0s" calcMode="spline" values="0.625 143.665; 0.625 143.665; 17.625 146.665; 17.625 146.665; -19.375 146.665; -19.375 146.665; 0.625 143.665; 0.625 143.665" keyTimes="0; 0.383721; 0.523256; 0.569767; 0.744186; 0.77907; 0.872093; 1" keySplines="0 0 1 1; 0.333 0 0.667 1; 0 0 1 1; 0.676 0 0.744 1; 0 0 1 1; 0.333 0 0.667 1; 0 0 1 1" fill="freeze" /><g transform="scale(1,1)"><animateTransform repeatCount="indefinite" type="scale" attributeName="transform" dur="2.867s" begin="0s" calcMode="spline" values="1 1; 0.93 1.77; 0.93 1.77; 1 1; 1 1; 0.97 1.28; 0.97 1.28; 0.97 1.28; 0.97 1.28; 1 1; 1 1" keyTimes="0; 0.174419; 0.197675; 0.325581; 0.383721; 0.523256; 0.569767; 0.744186; 0.779069; 0.872093; 1" keySplines="0.333 0 0.667 1; 0.333 0 0.667 1; 0.333 0 0.667 1; 0.333 0 0.667 1; 0.333 0 0.667 1; 0.333 0 0.667 1; 0.676 0 0.744 1; 0.333 0 0.744 1; 0.333 0 0.667 1; 0 0 1 1" fill="freeze" /><g transform="translate(-0.625,-141.165)"><g id="i18" transform="matrix(1,0,0,1,0.625,165.875)"><ellipse ry="24.125" rx="24.125" cy="0" cx="0" fill="url(#i0)" /></g><g id="i19" transform="matrix(0.76,0,0,0.76,-0.125,159.5)"><ellipse ry="24.125" rx="24.125" cy="0" cx="0" fill="#84fcfc" /></g></g></g></g></g></g></g></g><g id="i16"><g transform="translate(487.5,509.75)"><animateTransform repeatCount="indefinite" type="translate" attributeName="transform" dur="2.867s" begin="0s" calcMode="spline" values="487.5 509.75; 487.5 449.75; 487.5 449.75; 487.5 509.75; 487.5 509.75; 501.5 509.75; 501.5 509.75; 472.5 509.75; 472.5 509.75; 487.5 509.75; 487.5 509.75" keyTimes="0; 0.174419; 0.197675; 0.325581; 0.348837; 0.523256; 0.569767; 0.744186; 0.779069; 0.872093; 1" keySplines="0.333 0 0.667 1; 0 0 1 1; 0.333 0 0.667 1; 0 0 1 1; 0.333 0 0.667 1; 0 0 1 1; 0.333 0 0.667 1; 0 0 1 1; 0.333 0 0.667 1; 0 0 1 1" fill="freeze" /><g transform="scale(1,1) translate(0.5,-108.25)"><g id="i20" transform="matrix(1,0,0,1,-0.5,108.25)"><path fill="url(#i1)" d="M54.5,-11C54.5,-11,49.5,18.25,49.5,18.25C45.25,37,27.225,52.625,9,52.625C9,52.625,-9,52.625,-9,52.625C-29,52.125,-48,31.25,-49.5,16.75C-49.5,16.75,-53.75,-13.75,-53.75,-13.75C-53.75,-31.975,-27.225,-47.75,-9,-47.75C-9,-47.75,9,-47.75,9,-47.75C27.225,-47.75,54.5,-29.225,54.5,-11Z" /></g><g><g id="i18" transform="translate(23.625,103.375)"><animateTransform repeatCount="indefinite" type="translate" attributeName="transform" dur="2.867s" begin="0s" calcMode="spline" values="23.625 103.375; 23.625 91.375; 23.625 91.375; 23.625 103.375; 23.625 103.375; 23.625 103.375" keyTimes="0; 0.174419; 0.22093; 0.325581; 0.872093; 1" keySplines="0.333 0 0.667 1; 0 0 1 1; 0.333 0 0.667 1; 0 0 1 1; 0 0 1 1" fill="freeze" /><ellipse ry="9.875" rx="9.875" cy="0" cx="0" fill="#7afffb" /></g></g></g></g></g><g id="i16"><g transform="translate(487.5,509.75)"><animateTransform repeatCount="indefinite" type="translate" attributeName="transform" dur="2.867s" begin="0s" calcMode="spline" values="487.5 509.75; 487.5 449.75; 487.5 449.75; 487.5 509.75; 487.5 509.75; 501.5 509.75; 501.5 509.75; 472.5 509.75; 472.5 509.75; 487.5 509.75; 487.5 509.75" keyTimes="0; 0.174419; 0.197675; 0.325581; 0.348837; 0.523256; 0.569767; 0.744186; 0.779069; 0.872093; 1" keySplines="0.333 0 0.667 1; 0 0 1 1; 0.333 0 0.667 1; 0 0 1 1; 0.333 0 0.667 1; 0 0 1 1; 0.333 0 0.667 1; 0 0 1 1; 0.333 0 0.667 1; 0 0 1 1" fill="freeze" /><g transform="scale(1,1) translate(0.5,-108.25)"><g transform="matrix(1,0,0,1,2,6.5)" id="i21"><g id="i22"><g transform="translate(-126.25,-59.25)"><animateTransform repeatCount="indefinite" type="translate" attributeName="transform" dur="2.867s" begin="0s" calcMode="spline" values="-126.25 -59.25; -126.25 -49.25; -126.25 -49.25; -126.25 -59.25; -126.25 -59.369; -119.75 -57.75; -119.75 -57.75; -131.75 -69.25; -131.75 -69.25; -126.25 -59.25; -126.25 -59.25" keyTimes="0; 0.174419; 0.232558; 0.325581; 0.348837; 0.523256; 0.569767; 0.744186; 0.779069; 0.872093; 1" keySplines="0.333 0 0.667 1; 0.333 0 0.667 1; 0.333 0 0.667 1; 0.252 0 0.593 0.354; 0.251 0.05 0.689 1; 0 0 1 1; 0.167 0 0.689 1; 0 0 1 1; 0.167 0 0.667 1; 0 0 1 1" fill="freeze" /><g transform="scale(1,1) translate(124.25,55.25)"><g id="i18" transform="matrix(1,0,0,1,-124.25,-55.25)"><ellipse ry="25.25" rx="25.25" cy="0" cx="0" fill="#145c9e" /></g><g id="i19" transform="matrix(1,0,0,1,127.25,-55.25)"><ellipse ry="25.25" rx="25.25" cy="0" cx="0" fill="#145c9e" /></g></g></g></g></g></g></g></g><g id="i16"><g transform="translate(487.5,509.75)"><animateTransform repeatCount="indefinite" type="translate" attributeName="transform" dur="2.867s" begin="0s" calcMode="spline" values="487.5 509.75; 487.5 449.75; 487.5 449.75; 487.5 509.75; 487.5 509.75; 501.5 509.75; 501.5 509.75; 472.5 509.75; 472.5 509.75; 487.5 509.75; 487.5 509.75" keyTimes="0; 0.174419; 0.197675; 0.325581; 0.348837; 0.523256; 0.569767; 0.744186; 0.779069; 0.872093; 1" keySplines="0.333 0 0.667 1; 0 0 1 1; 0.333 0 0.667 1; 0 0 1 1; 0.333 0 0.667 1; 0 0 1 1; 0.333 0 0.667 1; 0 0 1 1; 0.333 0 0.667 1; 0 0 1 1" fill="freeze" /><g transform="scale(1,1) translate(0.5,-108.25)"><g transform="matrix(1,0,0,1,2,6.5)" id="i21"><g id="i18" transform="matrix(1,0,0,1,-3.5,-60)"><path fill="url(#i2)" d="M0,-119C71.521,-119,126.003,-65.4,132.5,0C140,75.5,71.521,102.5,0,102.5C-71.521,102.5,-138,75,-130.5,0C-123.96,-65.396,-71.521,-119,0,-119Z" /></g><g id="i19" transform="matrix(0.891,0.454,-0.454,0.891,69.125,-143.313)"><ellipse ry="6.5" rx="9.375" cy="0" cx="0" stroke-width="0.5" stroke="#1f271b" fill="#49a8ff" /></g><g id="i23"><path d="M70.5,-145.625C70.5,-145.625,103.375,-212,103.375,-212" stroke-linecap="round" stroke-width="8" stroke="#7afffb"><animate repeatCount="indefinite" attributeName="d" dur="2.867s" begin="0s" calcMode="spline" values="M70.5,-145.625C70.5,-145.625,103.375,-212,103.375,-212; M70.5,-145.625C70.5,-145.625,87.875,-177.5,87.875,-177.5; M70.5,-145.625C70.5,-145.625,87.875,-177.5,87.875,-177.5; M70.5,-145.625C70.5,-145.625,103.375,-212,103.375,-212; M70.5,-145.625C70.5,-145.625,103.375,-212,103.375,-212; M70.5,-145.625C70.5,-145.625,103.375,-212,103.375,-212" keyTimes="0; 0.174419; 0.232558; 0.325581; 0.872093; 1" keySplines="0.333 0 0.667 1; 0.333 0 0.667 1; 0.333 0 0.667 1; 0.167 0 0.667 1; 0 0 1 1" fill="freeze" /></path></g></g></g></g></g><g id="i16"><g transform="translate(487.5,509.75)"><animateTransform repeatCount="indefinite" type="translate" attributeName="transform" dur="2.867s" begin="0s" calcMode="spline" values="487.5 509.75; 487.5 449.75; 487.5 449.75; 487.5 509.75; 487.5 509.75; 501.5 509.75; 501.5 509.75; 472.5 509.75; 472.5 509.75; 487.5 509.75; 487.5 509.75" keyTimes="0; 0.174419; 0.197675; 0.325581; 0.348837; 0.523256; 0.569767; 0.744186; 0.779069; 0.872093; 1" keySplines="0.333 0 0.667 1; 0 0 1 1; 0.333 0 0.667 1; 0 0 1 1; 0.333 0 0.667 1; 0 0 1 1; 0.333 0 0.667 1; 0 0 1 1; 0.333 0 0.667 1; 0 0 1 1" fill="freeze" /><g transform="scale(1,1) translate(0.5,-108.25)"><g transform="matrix(1,0,0,1,2,6.5)" id="i21"><g id="i24"><g transform="translate(-2.508,-56.75)"><animateTransform repeatCount="indefinite" type="translate" attributeName="transform" dur="2.867s" begin="0s" calcMode="spline" values="-2.508 -56.75; -2.508 -76.75; -2.508 -76.75; -2.508 -56.75; -2.508 -56.75; -28.508 -68.75; -28.508 -68.75; 8.992 -45.25; 8.992 -45.25; -2.508 -56.75; -2.508 -56.75" keyTimes="0; 0.174419; 0.232558; 0.325581; 0.348837; 0.523256; 0.569767; 0.744186; 0.779069; 0.872093; 1" keySplines="0.333 0 0.667 1; 0.333 0 0.667 1; 0.333 0 0.667 1; 0.167 0 0.667 1; 0.167 0 0.667 1; 0 0 1 1; 0.167 0 0.667 1; 0 0 1 1; 0.167 0 0.667 1; 0 0 1 1" fill="freeze" /><g transform="scale(0.69,0.69) translate(2.508,68.25)"><g id="i18" transform="matrix(1,0,0,1,-3.5,-60)"><path fill="#145c9e" d="M0,-119C71.521,-119,128.007,-63.934,134.674,1.449C143.033,83.416,71.481,71.703,-0.04,71.703C-71.561,71.703,-140.301,85.591,-131.225,-0.362C-124.323,-65.721,-71.521,-119,0,-119Z" /></g><g><g transform="translate(-72.243,-72.054)"><g id="i19" transform="scale(1,1)"><animateTransform repeatCount="indefinite" type="scale" attributeName="transform" dur="2.867s" begin="0s" calcMode="spline" values="1 1; 1 1; 1 0; 1 1; 1 1; 1 0; 1 1; 1 1" keyTimes="0; 0.488372; 0.534884; 0.581395; 0.697675; 0.744186; 0.790698; 1" keySplines="0 0 1 1; 0.333 0 0.667 1; 0.333 0 0.667 1; 0.296 0 0.667 1; 0.333 0 0.667 1; 0.333 0 0.667 1; 0 0 1 1" fill="freeze" /><path d="M0,-36.775C11.106,-36.775,20.109,-20.31,20.109,0C20.109,20.31,11.106,36.775,0,36.775C-11.106,36.775,-20.109,20.31,-20.109,0C-20.109,-20.31,-11.106,-36.775,0,-36.775Z" fill="#7afffb"><animate repeatCount="indefinite" attributeName="d" dur="2.867s" begin="0s" calcMode="spline" values="M0,-36.775C11.106,-36.775,20.109,-20.31,20.109,0C20.109,20.31,11.106,36.775,0,36.775C-11.106,36.775,-20.109,20.31,-20.109,0C-20.109,-20.31,-11.106,-36.775,0,-36.775Z; M0,-36.775C11.106,-36.775,20.109,-20.31,20.109,0C20.109,20.31,11.831,12.138,0.725,12.138C-10.381,12.138,-20.109,20.31,-20.109,0C-20.109,-20.31,-11.106,-36.775,0,-36.775Z; M0,-36.775C11.106,-36.775,20.109,-20.31,20.109,0C20.109,20.31,11.831,12.138,0.725,12.138C-10.381,12.138,-20.109,20.31,-20.109,0C-20.109,-20.31,-11.106,-36.775,0,-36.775Z; M0,-36.775C11.106,-36.775,20.109,-20.31,20.109,0C20.109,20.31,11.106,36.775,0,36.775C-11.106,36.775,-20.109,20.31,-20.109,0C-20.109,-20.31,-11.106,-36.775,0,-36.775Z; M0,-36.775C11.106,-36.775,20.109,-20.31,20.109,0C20.109,20.31,11.106,36.775,0,36.775C-11.106,36.775,-20.109,20.31,-20.109,0C-20.109,-20.31,-11.106,-36.775,0,-36.775Z" keyTimes="0; 0.174419; 0.232558; 0.325581; 1" keySplines="0.333 0 0.667 1; 0.333 0 0.667 1; 0.333 0 0.667 1; 0 0 1 1" fill="freeze" /></path></g></g></g><g><g transform="translate(69.061,-72.054)"><g id="i25" transform="scale(1,1)"><animateTransform repeatCount="indefinite" type="scale" attributeName="transform" dur="2.867s" begin="0s" calcMode="spline" values="1 1; 1 1; 1 0; 1 1; 1 1; 1 0; 1 1; 1 1" keyTimes="0; 0.488372; 0.534884; 0.581395; 0.697675; 0.744186; 0.790698; 1" keySplines="0 0 1 1; 0.333 0 0.667 1; 0.333 0 0.667 1; 0.296 0 0.667 1; 0.333 0 0.667 1; 0.333 0 0.667 1; 0 0 1 1" fill="freeze" /><path d="M0,-36.775C11.106,-36.775,20.109,-20.31,20.109,0C20.109,20.31,11.106,36.775,0,36.775C-11.106,36.775,-20.109,20.31,-20.109,0C-20.109,-20.31,-11.106,-36.775,0,-36.775Z" fill="#7afffb"><animate repeatCount="indefinite" attributeName="d" dur="2.867s" begin="0s" calcMode="spline" values="M0,-36.775C11.106,-36.775,20.109,-20.31,20.109,0C20.109,20.31,11.106,36.775,0,36.775C-11.106,36.775,-20.109,20.31,-20.109,0C-20.109,-20.31,-11.106,-36.775,0,-36.775Z; M0,-36.775C11.106,-36.775,20.109,-20.31,20.109,0C20.109,20.31,11.429,9.964,0.323,9.964C-10.783,9.964,-20.109,20.31,-20.109,0C-20.109,-20.31,-11.106,-36.775,0,-36.775Z; M0,-36.775C11.106,-36.775,20.109,-20.31,20.109,0C20.109,20.31,11.429,9.964,0.323,9.964C-10.783,9.964,-20.109,20.31,-20.109,0C-20.109,-20.31,-11.106,-36.775,0,-36.775Z; M0,-36.775C11.106,-36.775,20.109,-20.31,20.109,0C20.109,20.31,11.106,36.775,0,36.775C-11.106,36.775,-20.109,20.31,-20.109,0C-20.109,-20.31,-11.106,-36.775,0,-36.775Z; M0,-36.775C11.106,-36.775,20.109,-20.31,20.109,0C20.109,20.31,11.106,36.775,0,36.775C-11.106,36.775,-20.109,20.31,-20.109,0C-20.109,-20.31,-11.106,-36.775,0,-36.775Z" keyTimes="0; 0.174419; 0.232558; 0.325581; 1" keySplines="0.333 0 0.667 1; 0.333 0 0.667 1; 0.333 0 0.667 1; 0 0 1 1" fill="freeze" /></path></g></g></g><g id="i23"><path fill="#ffffff" d="M-34.743,-41.62C-34.743,-41.62,-33.656,-8.105,0.764,-9.373C28.846,-10.408,31.199,-40.533,31.199,-40.533C31.199,-40.533,-34.743,-41.62,-34.743,-41.62Z" /></g></g></g></g></g></g></g></g><g id="i16"><g transform="translate(487.5,509.75)"><animateTransform repeatCount="indefinite" type="translate" attributeName="transform" dur="2.867s" begin="0s" calcMode="spline" values="487.5 509.75; 487.5 449.75; 487.5 449.75; 487.5 509.75; 487.5 509.75; 501.5 509.75; 501.5 509.75; 472.5 509.75; 472.5 509.75; 487.5 509.75; 487.5 509.75" keyTimes="0; 0.174419; 0.197675; 0.325581; 0.348837; 0.523256; 0.569767; 0.744186; 0.779069; 0.872093; 1" keySplines="0.333 0 0.667 1; 0 0 1 1; 0.333 0 0.667 1; 0 0 1 1; 0.333 0 0.667 1; 0 0 1 1; 0.333 0 0.667 1; 0 0 1 1; 0.333 0 0.667 1; 0 0 1 1" fill="freeze" /><g transform="scale(1,1) translate(0.5,-108.25)"><g transform="matrix(1,0,0,1,2,6.5)" id="i21"><g transform="matrix(1,0,0,1,-2,-4)" id="i26"><g id="i23"><path d="M131.5,-52C131.5,-52,135.429,-30.711,115.25,-15.5C82.75,9,36,4,36,4" stroke-linecap="round" stroke-width="8" stroke="#7afffb"><animate repeatCount="indefinite" attributeName="d" dur="2.867s" begin="0s" calcMode="spline" values="M131.5,-52C131.5,-52,135.429,-30.711,115.25,-15.5C82.75,9,36,4,36,4; M131.5,-52C131.5,-52,137.637,-42.957,115.375,-31C80,-12,35.875,-17,35.875,-17; M131.5,-52C131.5,-52,137.637,-42.957,115.375,-31C80,-12,35.875,-17,35.875,-17; M131.5,-52C131.5,-52,135.429,-30.711,115.25,-15.5C82.75,9,36,4,36,4; M131.5,-52C131.5,-52,135.429,-30.711,115.25,-15.5C82.75,9,36,4,36,4" keyTimes="0; 0.174419; 0.232558; 0.325581; 1" keySplines="0.333 0 0.667 1; 0.333 0 0.667 1; 0.333 0 0.667 1; 0 0 1 1" fill="freeze" /></path></g><g id="i27"><path d="M54.625,4.5C54.625,4.5,36.625,4.5,36.625,4.5" stroke-linecap="round" stroke-width="20" stroke="#7afffb"><animate repeatCount="indefinite" attributeName="d" dur="2.867s" begin="0s" calcMode="spline" values="M54.625,4.5C54.625,4.5,36.625,4.5,36.625,4.5; M54.5,-16.5C54.5,-16.5,36.5,-16.5,36.5,-16.5; M54.5,-16.5C54.5,-16.5,36.5,-16.5,36.5,-16.5; M54.625,4.5C54.625,4.5,36.625,4.5,36.625,4.5; M54.625,4.5C54.625,4.5,36.625,4.5,36.625,4.5" keyTimes="0; 0.174419; 0.232558; 0.325581; 1" keySplines="0.333 0 0.667 1; 0.333 0 0.667 1; 0.333 0 0.667 1; 0 0 1 1" fill="freeze" /></path></g></g></g></g></g></g><g id="i16"><g transform="translate(487.5,509.75)"><animateTransform repeatCount="indefinite" type="translate" attributeName="transform" dur="2.867s" begin="0s" calcMode="spline" values="487.5 509.75; 487.5 449.75; 487.5 449.75; 487.5 509.75; 487.5 509.75; 501.5 509.75; 501.5 509.75; 472.5 509.75; 472.5 509.75; 487.5 509.75; 487.5 509.75" keyTimes="0; 0.174419; 0.197675; 0.325581; 0.348837; 0.523256; 0.569767; 0.744186; 0.779069; 0.872093; 1" keySplines="0.333 0 0.667 1; 0 0 1 1; 0.333 0 0.667 1; 0 0 1 1; 0.333 0 0.667 1; 0 0 1 1; 0.333 0 0.667 1; 0 0 1 1; 0.333 0 0.667 1; 0 0 1 1" fill="freeze" /><g transform="scale(1,1) translate(0.5,-108.25)"><g id="i28"><g transform="translate(69.75,63.001)"><g transform="rotate(-46)"><animateTransform repeatCount="indefinite" type="rotate" attributeName="transform" dur="2.867s" begin="0s" calcMode="spline" values="-46; -118; -118; -46; -46" keyTimes="0; 0.174418; 0.232558; 0.325581; 1" keySplines="0.333 0 0.667 1; 0.333 0 0.667 1; 0.65 0 0.812 1; 0 0 1 1" fill="freeze" /><g transform="scale(1,1) translate(-197.784,-53.645)"><g id="i20" transform="matrix(1,0,0,1,196.25,101)"><path fill="url(#i3)" d="M25.25,-22.25C25.25,-22.25,18,23.75,18,23.75C16.25,36.5,10.25,47.25,0,47.5C-8.751,47.713,-15.25,35.75,-17.75,22.5C-17.75,22.5,-25.25,-22.25,-25.25,-22.25C-25.25,-36.195,-13.945,-47.5,0,-47.5C13.945,-47.5,25.25,-36.195,25.25,-22.25Z" /></g></g></g></g></g></g></g></g><g id="i16"><g transform="translate(487.5,509.75)"><animateTransform repeatCount="indefinite" type="translate" attributeName="transform" dur="2.867s" begin="0s" calcMode="spline" values="487.5 509.75; 487.5 449.75; 487.5 449.75; 487.5 509.75; 487.5 509.75; 501.5 509.75; 501.5 509.75; 472.5 509.75; 472.5 509.75; 487.5 509.75; 487.5 509.75" keyTimes="0; 0.174419; 0.197675; 0.325581; 0.348837; 0.523256; 0.569767; 0.744186; 0.779069; 0.872093; 1" keySplines="0.333 0 0.667 1; 0 0 1 1; 0.333 0 0.667 1; 0 0 1 1; 0.333 0 0.667 1; 0 0 1 1; 0.333 0 0.667 1; 0 0 1 1; 0.333 0 0.667 1; 0 0 1 1" fill="freeze" /><g transform="scale(1,1) translate(0.5,-108.25)"><g id="i29"><g transform="translate(-66.25,61.501)"><g transform="rotate(-133)"><animateTransform repeatCount="indefinite" type="rotate" attributeName="transform" dur="2.867s" begin="0s" calcMode="spline" values="-133; -63; -63; -133; -133" keyTimes="0; 0.174418; 0.232558; 0.325581; 1" keySplines="0.333 0 0.667 1; 0.333 0 0.667 1; 0.65 0 0.812 1; 0 0 1 1" fill="freeze" /><g transform="scale(-1,-1) translate(-195.254,-52.216)"><g id="i20" transform="matrix(1,0,0,1,196.25,101)"><path fill="url(#i4)" d="M25.25,-22.25C25.25,-22.25,18,23.75,18,23.75C16.25,36.5,10.25,47.25,0,47.5C-8.751,47.713,-15.25,35.75,-17.75,22.5C-17.75,22.5,-25.25,-22.25,-25.25,-22.25C-25.25,-36.195,-13.945,-47.5,0,-47.5C13.945,-47.5,25.25,-36.195,25.25,-22.25Z" /></g></g></g></g></g></g></g></g><g visibility="hidden" id="i30"><animate repeatCount="indefinite" begin="0s" calcMode="discrete" dur="2.867s" values="hidden; visible; visible" keyTimes="0; 0.047005; 1" attributeName="visibility" /><g transform="translate(378.5,317.25)"><animateTransform repeatCount="indefinite" type="translate" attributeName="transform" dur="2.867s" begin="0s" calcMode="spline" values="378.5 317.25; 378.5 317.25; 325.5 284.75; 351.5 302.25; 351.5 302.25; 325.5 284.75; 378.5 317.25; 378.5 317.25" keyTimes="0; 0.046512; 0.127907; 0.279069; 0.627907; 0.77907; 0.860465; 1" keySplines="0 0 1 1; 0.275 0 0.191 0.488; 0.329 0.705 0.685 1; 0.407 0 0.685 1; 0.315 0 0.671 0.261; 0.809 0.512 0.725 1; 0 0 1 1" fill="freeze" /><g transform="scale(0,0)"><animateTransform repeatCount="indefinite" type="scale" attributeName="transform" dur="2.867s" begin="0s" calcMode="spline" values="0 0; 0 0; 1.24 1.24; 1 1; 1 1; 1.24 1.24; 0 0; 0 0" keyTimes="0; 0.046512; 0.127907; 0.279069; 0.627907; 0.77907; 0.860465; 1" keySplines="0 0 1 1; 0.275 0 0.191 0.488; 0.329 0.731 0.685 1; 0 0 1 1; 0.315 0 0.671 1; 0.809 0.512 0.725 1; 0 0 1 1" fill="freeze" /><g transform="translate(138,100.25)"><g id="i23"><path fill="url(#i5)" d="M-153.75,-148.75C-153.75,-148.75,-180,-125.5,-180,-125.5C-180,-125.5,-138.75,-100.75,-138.75,-100.75C-138.75,-100.75,-153.75,-148.75,-153.75,-148.75Z" /></g><g id="i18" transform="matrix(1,0,0,1,-214,-187)"><ellipse ry="78" rx="78" cy="0" cx="0" fill="url(#i6)" /></g></g></g></g></g><g id="i30"><g transform="translate(378.5,317.25)"><animateTransform repeatCount="indefinite" type="translate" attributeName="transform" dur="2.867s" begin="0s" calcMode="spline" values="378.5 317.25; 378.5 317.25; 325.5 284.75; 351.5 302.25; 351.5 302.25; 325.5 284.75; 378.5 317.25; 378.5 317.25" keyTimes="0; 0.046512; 0.127907; 0.279069; 0.627907; 0.77907; 0.860465; 1" keySplines="0 0 1 1; 0.275 0 0.191 0.488; 0.329 0.705 0.685 1; 0.407 0 0.685 1; 0.315 0 0.671 0.261; 0.809 0.512 0.725 1; 0 0 1 1" fill="freeze" /><g transform="scale(0,0)"><animateTransform repeatCount="indefinite" type="scale" attributeName="transform" dur="2.867s" begin="0s" calcMode="spline" values="0 0; 0 0; 1.24 1.24; 1 1; 1 1; 1.24 1.24; 0 0; 0 0" keyTimes="0; 0.046512; 0.127907; 0.279069; 0.627907; 0.77907; 0.860465; 1" keySplines="0 0 1 1; 0.275 0 0.191 0.488; 0.329 0.731 0.685 1; 0 0 1 1; 0.315 0 0.671 1; 0.809 0.512 0.725 1; 0 0 1 1" fill="freeze" /><g transform="translate(138,100.25)"><g visibility="hidden" id="i20"><animate repeatCount="indefinite" begin="0s" calcMode="discrete" dur="2.867s" values="hidden; visible; visible" keyTimes="0; 0.058007; 1" attributeName="visibility" /><g transform="translate(-253.5,-184.375)"><animateTransform repeatCount="indefinite" type="translate" attributeName="transform" dur="2.867s" begin="0s" calcMode="spline" values="-253.5 -184.375; -253.5 -184.375; -253.5 -214.375; -253.5 -184.375; -253.5 -214.375; -253.5 -184.375; -253.5 -184.375" keyTimes="0; 0.290698; 0.406977; 0.523256; 0.639535; 0.755814; 1" keySplines="0 0 1 1; 0.333 0 0.667 1; 0.333 0 0.667 1; 0.185 0 0.667 1; 0.333 0 0.667 1; 0 0 1 1" fill="freeze" /><g transform="scale(1,1) translate(253.5,184.375)"><g id="i20" transform="matrix(1,0,0,1,-253.5,-184.375)"><rect height="23.25" width="22.5" y="-11.625" x="-11.25" fill="url(#i7)" /></g></g></g></g></g></g></g></g><g id="i30"><g transform="translate(378.5,317.25)"><animateTransform repeatCount="indefinite" type="translate" attributeName="transform" dur="2.867s" begin="0s" calcMode="spline" values="378.5 317.25; 378.5 317.25; 325.5 284.75; 351.5 302.25; 351.5 302.25; 325.5 284.75; 378.5 317.25; 378.5 317.25" keyTimes="0; 0.046512; 0.127907; 0.279069; 0.627907; 0.77907; 0.860465; 1" keySplines="0 0 1 1; 0.275 0 0.191 0.488; 0.329 0.705 0.685 1; 0.407 0 0.685 1; 0.315 0 0.671 0.261; 0.809 0.512 0.725 1; 0 0 1 1" fill="freeze" /><g transform="scale(0,0)"><animateTransform repeatCount="indefinite" type="scale" attributeName="transform" dur="2.867s" begin="0s" calcMode="spline" values="0 0; 0 0; 1.24 1.24; 1 1; 1 1; 1.24 1.24; 0 0; 0 0" keyTimes="0; 0.046512; 0.127907; 0.279069; 0.627907; 0.77907; 0.860465; 1" keySplines="0 0 1 1; 0.275 0 0.191 0.488; 0.329 0.731 0.685 1; 0 0 1 1; 0.315 0 0.671 1; 0.809 0.512 0.725 1; 0 0 1 1" fill="freeze" /><g transform="translate(138,100.25)"><g visibility="hidden" id="i31"><animate repeatCount="indefinite" begin="0s" calcMode="discrete" dur="2.867s" values="hidden; visible; visible" keyTimes="0; 0.058007; 1" attributeName="visibility" /><g transform="translate(-211.5,-184.375)"><animateTransform repeatCount="indefinite" type="translate" attributeName="transform" dur="2.867s" begin="0s" calcMode="spline" values="-211.5 -184.375; -211.5 -184.375; -211.5 -214.375; -211.5 -184.375; -211.5 -214.375; -211.5 -184.375; -211.5 -184.375" keyTimes="0; 0.325581; 0.44186; 0.558139; 0.674418; 0.790697; 1" keySplines="0 0 1 1; 0.333 0 0.667 1; 0.333 0 0.667 1; 0.185 0 0.667 1; 0.333 0 0.667 1; 0 0 1 1" fill="freeze" /><g transform="scale(1,1) translate(211.5,184.375)"><g id="i31" transform="matrix(1,0,0,1,-211.5,-184.375)"><rect height="23.25" width="22.5" y="-11.625" x="-11.25" fill="url(#i8)" /></g></g></g></g></g></g></g></g><g id="i30"><g transform="translate(378.5,317.25)"><animateTransform repeatCount="indefinite" type="translate" attributeName="transform" dur="2.867s" begin="0s" calcMode="spline" values="378.5 317.25; 378.5 317.25; 325.5 284.75; 351.5 302.25; 351.5 302.25; 325.5 284.75; 378.5 317.25; 378.5 317.25" keyTimes="0; 0.046512; 0.127907; 0.279069; 0.627907; 0.77907; 0.860465; 1" keySplines="0 0 1 1; 0.275 0 0.191 0.488; 0.329 0.705 0.685 1; 0.407 0 0.685 1; 0.315 0 0.671 0.261; 0.809 0.512 0.725 1; 0 0 1 1" fill="freeze" /><g transform="scale(0,0)"><animateTransform repeatCount="indefinite" type="scale" attributeName="transform" dur="2.867s" begin="0s" calcMode="spline" values="0 0; 0 0; 1.24 1.24; 1 1; 1 1; 1.24 1.24; 0 0; 0 0" keyTimes="0; 0.046512; 0.127907; 0.279069; 0.627907; 0.77907; 0.860465; 1" keySplines="0 0 1 1; 0.275 0 0.191 0.488; 0.329 0.731 0.685 1; 0 0 1 1; 0.315 0 0.671 1; 0.809 0.512 0.725 1; 0 0 1 1" fill="freeze" /><g transform="translate(138,100.25)"><g visibility="hidden" id="i32"><animate repeatCount="indefinite" begin="0s" calcMode="discrete" dur="2.867s" values="hidden; visible; visible" keyTimes="0; 0.058007; 1" attributeName="visibility" /><g transform="translate(-169.25,-184.375)"><animateTransform repeatCount="indefinite" type="translate" attributeName="transform" dur="2.867s" begin="0s" calcMode="spline" values="-169.25 -184.375; -169.25 -184.375; -169.25 -214.375; -169.25 -184.375; -169.25 -214.375; -169.25 -184.375; -169.25 -184.375" keyTimes="0; 0.360465; 0.476744; 0.593023; 0.709302; 0.825581; 1" keySplines="0 0 1 1; 0.333 0 0.667 0.989; 0.333 0.011 0.667 1; 0.185 0 0.667 0.989; 0.333 0.011 0.667 1; 0 0 1 1" fill="freeze" /><g transform="scale(1,1) translate(169.25,184.375)"><g id="i32" transform="matrix(1,0,0,1,-169.25,-184.375)"><rect height="23.25" width="22.5" y="-11.625" x="-11.25" fill="url(#i9)" /></g></g></g></g></g></g></g></g><g visibility="hidden" id="i33"><animate repeatCount="indefinite" begin="0s" calcMode="discrete" dur="2.867s" values="hidden; visible; visible" keyTimes="0; 0.035004; 1" attributeName="visibility" /><g transform="translate(381,437.625)"><animateTransform repeatCount="indefinite" type="translate" attributeName="transform" dur="2.867s" begin="0s" calcMode="spline" values="381 437.625; 381 437.625; 299.5 499.625; 343 481.625; 343 481.625; 299.5 499.625; 381 437.625; 381 437.625" keyTimes="0; 0.034884; 0.116279; 0.267442; 0.616279; 0.767442; 0.848837; 1" keySplines="0 0 1 1; 0.275 0 0.191 0.488; 0.329 0.69 0.685 1; 0.407 0 0.685 1; 0.315 0 0.671 0.207; 0.809 0.512 0.725 1; 0 0 1 1" fill="freeze" /><g transform="rotate(105)"><g transform="scale(0,0)"><animateTransform repeatCount="indefinite" type="scale" attributeName="transform" dur="2.867s" begin="0s" calcMode="spline" values="0 0; 0 0; -0.99 -0.99; -0.81 -0.81; -0.81 -0.81; -0.99 -0.99; 0 0; 0 0" keyTimes="0; 0.034884; 0.116279; 0.267442; 0.616279; 0.767442; 0.848837; 1" keySplines="0 0 1 1; 0.275 0 0.191 0.488; 0.329 0.731 0.685 1; 0 0 1 1; 0.315 0 0.671 1; 0.809 0.512 0.725 1; 0 0 1 1" fill="freeze" /><g transform="translate(138.949,100.735)"><g id="i23"><path fill="url(#i10)" d="M-153.75,-148.75C-153.75,-148.75,-180,-125.5,-180,-125.5C-180,-125.5,-138.75,-100.75,-138.75,-100.75C-138.75,-100.75,-153.75,-148.75,-153.75,-148.75Z" /></g><g id="i18" transform="matrix(1,0,0,1,-214,-187)"><ellipse ry="78" rx="78" cy="0" cx="0" fill="url(#i11)" /></g></g></g></g></g></g><g id="i33"><g transform="translate(381,437.625)"><animateTransform repeatCount="indefinite" type="translate" attributeName="transform" dur="2.867s" begin="0s" calcMode="spline" values="381 437.625; 381 437.625; 299.5 499.625; 343 481.625; 343 481.625; 299.5 499.625; 381 437.625; 381 437.625" keyTimes="0; 0.034884; 0.116279; 0.267442; 0.616279; 0.767442; 0.848837; 1" keySplines="0 0 1 1; 0.275 0 0.191 0.488; 0.329 0.69 0.685 1; 0.407 0 0.685 1; 0.315 0 0.671 0.207; 0.809 0.512 0.725 1; 0 0 1 1" fill="freeze" /><g transform="rotate(105)"><g transform="scale(0,0)"><animateTransform repeatCount="indefinite" type="scale" attributeName="transform" dur="2.867s" begin="0s" calcMode="spline" values="0 0; 0 0; -0.99 -0.99; -0.81 -0.81; -0.81 -0.81; -0.99 -0.99; 0 0; 0 0" keyTimes="0; 0.034884; 0.116279; 0.267442; 0.616279; 0.767442; 0.848837; 1" keySplines="0 0 1 1; 0.275 0 0.191 0.488; 0.329 0.731 0.685 1; 0 0 1 1; 0.315 0 0.671 1; 0.809 0.512 0.725 1; 0 0 1 1" fill="freeze" /><g transform="translate(138.949,100.735)"><g visibility="hidden" id="i34"><animate repeatCount="indefinite" begin="0s" calcMode="discrete" dur="2.867s" values="hidden; visible; visible" keyTimes="0; 0.058007; 1" attributeName="visibility" /><g transform="translate(-215.794,-186.855)"><g transform="rotate(75)"><animateTransform repeatCount="indefinite" type="rotate" attributeName="transform" dur="2.867s" begin="0s" calcMode="spline" values="75; 75; 356; 75; 75" keyTimes="0; 0.290698; 0.546512; 0.813953; 1" keySplines="0 0 1 1; 0.333 0 0.667 1; 0.333 0 0.667 1; 0 0 1 1" fill="freeze" /><g transform="scale(1.13,1.13) translate(-2.26,6.556)"><g id="i35"><path fill="#7afffb" d="M-4.815,-53.413C-7.059,-53.413,-8.978,-51.827,-9.409,-49.625C-9.409,-49.625,-10.974,-41.589,-10.974,-41.589C-14.82,-40.135,-18.376,-38.103,-21.499,-35.54C-21.499,-35.54,-29.205,-38.194,-29.205,-38.194C-31.328,-38.925,-33.662,-38.047,-34.787,-36.107C-34.787,-36.107,-41.853,-23.862,-41.853,-23.862C-42.973,-21.917,-42.565,-19.448,-40.873,-17.977C-40.873,-17.977,-34.696,-12.605,-34.696,-12.605C-35.017,-10.631,-35.227,-8.621,-35.227,-6.556C-35.227,-4.491,-35.017,-2.48,-34.696,-0.506C-34.696,-0.506,-40.873,4.866,-40.873,4.866C-42.565,6.337,-42.973,8.805,-41.853,10.75C-41.853,10.75,-34.787,22.996,-34.787,22.996C-33.667,24.941,-31.328,25.817,-29.205,25.091C-29.205,25.091,-21.499,22.437,-21.499,22.437C-18.377,24.999,-14.818,27.024,-10.974,28.478C-10.974,28.478,-9.409,36.513,-9.409,36.513C-8.978,38.715,-7.059,40.302,-4.815,40.302C-4.815,40.302,9.334,40.302,9.334,40.302C11.578,40.302,13.497,38.715,13.928,36.513C13.928,36.513,15.493,28.478,15.493,28.478C19.339,27.024,22.895,24.991,26.018,22.428C26.018,22.428,33.724,25.082,33.724,25.082C35.847,25.813,38.181,24.941,39.306,22.996C39.306,22.996,46.372,10.741,46.372,10.741C47.492,8.796,47.084,6.337,45.392,4.866C45.392,4.866,39.215,-0.506,39.215,-0.506C39.536,-2.48,39.746,-4.491,39.746,-6.556C39.746,-8.621,39.536,-10.631,39.215,-12.605C39.215,-12.605,45.392,-17.977,45.392,-17.977C47.084,-19.448,47.492,-21.917,46.372,-23.862C46.372,-23.862,39.306,-36.107,39.306,-36.107C38.186,-38.052,35.847,-38.929,33.724,-38.203C33.724,-38.203,26.018,-35.549,26.018,-35.549C22.896,-38.111,19.337,-40.135,15.493,-41.589C15.493,-41.589,13.928,-49.625,13.928,-49.625C13.497,-51.827,11.578,-53.413,9.334,-53.413C9.334,-53.413,-4.815,-53.413,-4.815,-53.413ZM2.26,-25.299C12.611,-25.299,21.003,-16.907,21.003,-6.556C21.003,3.795,12.611,12.187,2.26,12.187C-8.091,12.187,-16.484,3.795,-16.484,-6.556C-16.484,-16.907,-8.091,-25.299,2.26,-25.299Z" /></g></g></g></g></g></g></g></g></g></g><g visibility="hidden" id="i36"><animate repeatCount="indefinite" begin="0s" calcMode="discrete" dur="2.867s" values="hidden; visible; visible" keyTimes="0; 0.023003; 1" attributeName="visibility" /><g transform="translate(607.5,434.125)"><animateTransform repeatCount="indefinite" type="translate" attributeName="transform" dur="2.867s" begin="0s" calcMode="spline" values="607.5 434.125; 607.5 434.125; 685 473.625; 643.5 463.125; 643.5 463.125; 685 473.625; 607.5 434.125; 607.5 434.125" keyTimes="0; 0.023256; 0.104651; 0.255814; 0.604651; 0.755814; 0.837209; 1" keySplines="0 0 1 1; 0.275 0 0.191 0.488; 0.329 0.698 0.685 1; 0.407 0 0.685 1; 0.315 0 0.671 0.25; 0.809 0.512 0.725 1; 0 0 1 1" fill="freeze" /><g transform="rotate(-8)"><g transform="scale(0,0)"><animateTransform repeatCount="indefinite" type="scale" attributeName="transform" dur="2.867s" begin="0s" calcMode="spline" values="0 0; 0 0; -0.97 -0.97; -0.82 -0.82; -0.82 -0.82; -0.97 -0.97; 0 0; 0 0" keyTimes="0; 0.023256; 0.104651; 0.255814; 0.604651; 0.755814; 0.837209; 1" keySplines="0 0 1 1; 0.275 0 0.191 0.488; 0.329 0.731 0.685 1; 0 0 1 1; 0.315 0 0.671 1; 0.809 0.512 0.725 1; 0 0 1 1" fill="freeze" /><g transform="translate(135.856,99.234)"><g id="i23"><path fill="url(#i12)" d="M-153.75,-148.75C-153.75,-148.75,-180,-125.5,-180,-125.5C-180,-125.5,-138.75,-100.75,-138.75,-100.75C-138.75,-100.75,-153.75,-148.75,-153.75,-148.75Z" /></g><g id="i18" transform="matrix(1,0,0,1,-214,-187)"><ellipse ry="78" rx="78" cy="0" cx="0" fill="url(#i13)" /></g></g></g></g></g></g><g id="i36"><g transform="translate(607.5,434.125)"><animateTransform repeatCount="indefinite" type="translate" attributeName="transform" dur="2.867s" begin="0s" calcMode="spline" values="607.5 434.125; 607.5 434.125; 685 473.625; 643.5 463.125; 643.5 463.125; 685 473.625; 607.5 434.125; 607.5 434.125" keyTimes="0; 0.023256; 0.104651; 0.255814; 0.604651; 0.755814; 0.837209; 1" keySplines="0 0 1 1; 0.275 0 0.191 0.488; 0.329 0.698 0.685 1; 0.407 0 0.685 1; 0.315 0 0.671 0.25; 0.809 0.512 0.725 1; 0 0 1 1" fill="freeze" /><g transform="rotate(-8)"><g transform="scale(0,0)"><animateTransform repeatCount="indefinite" type="scale" attributeName="transform" dur="2.867s" begin="0s" calcMode="spline" values="0 0; 0 0; -0.97 -0.97; -0.82 -0.82; -0.82 -0.82; -0.97 -0.97; 0 0; 0 0" keyTimes="0; 0.023256; 0.104651; 0.255814; 0.604651; 0.755814; 0.837209; 1" keySplines="0 0 1 1; 0.275 0 0.191 0.488; 0.329 0.731 0.685 1; 0 0 1 1; 0.315 0 0.671 1; 0.809 0.512 0.725 1; 0 0 1 1" fill="freeze" /><g transform="translate(135.856,99.234)"><g visibility="hidden" id="i37"><animate repeatCount="indefinite" begin="0s" calcMode="discrete" dur="2.867s" values="hidden; visible; visible" keyTimes="0; 0.058007; 1" attributeName="visibility" /><g transform="translate(-193.727,-156.256)"><g transform="rotate(-172)"><animateTransform repeatCount="indefinite" type="rotate" attributeName="transform" dur="2.867s" begin="0s" calcMode="spline" values="-172; -172; -198; -172; -145; -172; -172" keyTimes="0; 0.290698; 0.453488; 0.593023; 0.72093; 0.813953; 1" keySplines="0 0 1 1; 0.228 0 0.414 1; 0.506 0 0.667 1; 0.228 0 0.52 1; 0.333 0 0.667 1; 0 0 1 1" fill="freeze" /><g transform="scale(-1.33,1.33) translate(-22.006,26.641)"><g id="i35"><path fill="#7afffb" d="M33.995,-21.248C33.995,-21.248,32.656,-27.762,30.842,-27.762C29.481,-27.762,24.053,-21.651,21.411,-18.589C20.468,-17.493,19.107,-16.876,17.663,-16.876C14.92,-16.876,12.699,-19.097,12.699,-21.84C12.699,-23.284,13.316,-24.645,14.412,-25.588C17.474,-28.23,23.585,-33.658,23.585,-35.019C23.585,-36.833,17.057,-38.204,17.057,-38.204C15.635,-38.498,14.165,-38.647,12.699,-38.647C0.692,-38.647,-9.071,-28.789,-9.071,-16.673C-9.071,-15.149,-8.886,-13.607,-8.516,-12.01C-8.516,-12.01,-31.064,10.134,-31.064,10.134C-35.607,14.739,-35.606,22.224,-31.06,26.829C-28.847,29.061,-25.897,30.294,-22.747,30.294C-19.601,30.294,-16.647,29.061,-14.474,26.862C-14.474,26.862,8.128,4.655,8.128,4.655C9.685,4.894,11.2,4.895,12.699,4.895C24.905,4.895,34.47,-4.579,34.47,-16.673C34.47,-18.204,34.311,-19.746,33.995,-21.248Z" /></g></g></g></g></g></g></g></g></g></g><g visibility="hidden" id="i38"><animate repeatCount="indefinite" begin="0s" calcMode="discrete" dur="2.867s" values="hidden; visible; visible" keyTimes="0; 0.081009; 1" attributeName="visibility" /><g transform="translate(620.5,323.625)"><animateTransform repeatCount="indefinite" type="translate" attributeName="transform" dur="2.867s" begin="0s" calcMode="spline" values="620.5 323.625; 620.5 323.625; 683.5 277.625; 651.5 303.625; 651.5 303.625; 683.5 277.625; 620.5 323.625; 620.5 323.625" keyTimes="0; 0.081395; 0.162791; 0.313953; 0.662791; 0.813953; 0.895349; 1" keySplines="0 0 1 1; 0.275 0 0.191 0.488; 0.329 0.731 0.685 1; 0 0 1 1; 0.315 0 0.671 0.269; 0.809 0.512 0.725 1; 0 0 1 1" fill="freeze" /><g transform="rotate(-103)"><g transform="scale(0,0)"><animateTransform repeatCount="indefinite" type="scale" attributeName="transform" dur="2.867s" begin="0s" calcMode="spline" values="0 0; 0 0; -0.94 -0.94; -0.7 -0.7; -0.7 -0.7; -0.94 -0.94; 0 0; 0 0" keyTimes="0; 0.081395; 0.162791; 0.313953; 0.662791; 0.813953; 0.895349; 1" keySplines="0 0 1 1; 0.275 0 0.191 0.641; 0.329 0.95 0.685 1; 0 0 1 1; 0.315 0 0.671 1; 0.809 0.359 0.725 1; 0 0 1 1" fill="freeze" /><g transform="translate(142.909,103.418)"><g id="i23"><path fill="url(#i14)" d="M-153.75,-148.75C-153.75,-148.75,-180,-125.5,-180,-125.5C-180,-125.5,-138.75,-100.75,-138.75,-100.75C-138.75,-100.75,-153.75,-148.75,-153.75,-148.75Z" /></g><g id="i18" transform="matrix(1,0,0,1,-214,-187)"><ellipse ry="78" rx="78" cy="0" cx="0" fill="url(#i15)" /></g></g></g></g></g></g><g id="i38"><g transform="translate(620.5,323.625)"><animateTransform repeatCount="indefinite" type="translate" attributeName="transform" dur="2.867s" begin="0s" calcMode="spline" values="620.5 323.625; 620.5 323.625; 683.5 277.625; 651.5 303.625; 651.5 303.625; 683.5 277.625; 620.5 323.625; 620.5 323.625" keyTimes="0; 0.081395; 0.162791; 0.313953; 0.662791; 0.813953; 0.895349; 1" keySplines="0 0 1 1; 0.275 0 0.191 0.488; 0.329 0.731 0.685 1; 0 0 1 1; 0.315 0 0.671 0.269; 0.809 0.512 0.725 1; 0 0 1 1" fill="freeze" /><g transform="rotate(-103)"><g transform="scale(0,0)"><animateTransform repeatCount="indefinite" type="scale" attributeName="transform" dur="2.867s" begin="0s" calcMode="spline" values="0 0; 0 0; -0.94 -0.94; -0.7 -0.7; -0.7 -0.7; -0.94 -0.94; 0 0; 0 0" keyTimes="0; 0.081395; 0.162791; 0.313953; 0.662791; 0.813953; 0.895349; 1" keySplines="0 0 1 1; 0.275 0 0.191 0.641; 0.329 0.95 0.685 1; 0 0 1 1; 0.315 0 0.671 1; 0.809 0.359 0.725 1; 0 0 1 1" fill="freeze" /><g transform="translate(142.909,103.418)"><g visibility="hidden" id="i39"><animate repeatCount="indefinite" begin="0s" calcMode="discrete" dur="2.867s" values="hidden; visible; visible" keyTimes="0; 0.058007; 1" attributeName="visibility" /><g transform="translate(-169.089,-176.172)"><g transform="rotate(-77)"><animateTransform repeatCount="indefinite" type="rotate" attributeName="transform" dur="2.867s" begin="0s" calcMode="spline" values="-77; -77; -62; -94.788; -59; -96; -63; -91; -59; -77; -77" keyTimes="0; 0.255814; 0.302325; 0.348837; 0.418604; 0.488372; 0.55814; 0.627907; 0.686046; 0.744186; 1" keySplines="0 0 1 1; 0.333 0 0.667 1; 0.333 0 0.667 0.754; 0.333 0 0.667 1; 0.333 0 0.667 1; 0.333 0 0.667 1; 0.333 0 0.667 1; 0.158 0 0.667 1; 0.333 0 0.667 1; 0 0 1 1" fill="freeze" /><g transform="scale(1.429,1.429) translate(-209,129.688)"><g id="i23"><path fill="#7afffb" d="M215.75,-192.5C215.75,-192.5,201.25,-192.5,201.25,-192.5C201.25,-192.5,203.5,-145.75,203.5,-145.75C203.5,-145.75,214,-146,214,-146C214,-146,215.75,-192.5,215.75,-192.5Z" /></g><g id="i27"><path fill="#7afffb" d="M214,-136C214,-136,203.25,-136,203.25,-136C203.25,-136,203.375,-126,203.375,-126C203.375,-126,214,-125.875,214,-125.875C214,-125.875,214,-136,214,-136Z" /></g></g></g></g></g></g></g></g></g></g></svg>