<svg fill="none" height="100%" width="100%" viewBox="0 0 280 200" xmlns:xlink="http://www.w3.org/1999/xlink" xmlns="http://www.w3.org/2000/svg"><g transform="matrix(1.062,0,0,1.289,198.251,153.22)" id="i0"><g id="i1" transform="matrix(1,0,0,1,-52.446,2.907)"><ellipse ry="4.088" rx="37.947" cy="0" cx="0" fill="#9999c2" /></g></g><g transform="matrix(0.689,0,0,0.344,166.547,152.16)" id="i2"><g id="i3"><path d="M7.638,18.504C7.638,18.504,19.787,29.782,27.323,11.811C32.441,-0.394,12.756,-25.196,23.78,-35.039C33.542,-43.755,56.85,-35.04,46.614,-14.961" stroke-linecap="round" stroke-width="15" stroke="#9999c2"><animate repeatCount="indefinite" attributeName="d" dur="1.28s" begin="0s" calcMode="spline" values="M7.638,18.504C7.638,18.504,19.787,29.782,27.323,11.811C32.441,-0.394,12.756,-25.196,23.78,-35.039C33.542,-43.755,56.85,-35.04,46.614,-14.961; M7.638,18.504C7.638,18.504,20.968,32.932,28.504,14.961C33.622,2.756,24.173,-5.905,25.354,-27.165C26.08,-40.232,29.685,-47.638,44.252,-43.307; M7.638,18.504C7.638,18.504,15.906,25.984,27.008,23.622C36.772,18.504,41.496,16.142,38.11,-0.079C31.653,-15.748,25.748,-39.763,36.85,-43.543; M7.638,18.504C7.638,18.504,14.724,25.328,28.556,24.672C34.409,24.41,40.708,20.078,48.556,8.871C56.456,-2.363,57.638,-21.26,40.105,-29.291; M7.638,18.504C7.638,18.504,14.724,25.328,28.556,24.672C34.409,24.41,40.708,20.078,48.556,8.871C56.456,-2.363,57.638,-21.26,40.105,-29.291; M7.638,18.504C7.638,18.504,12.363,24.016,31.654,26.772C46.51,28.894,55.113,27.507,61.181,26.772C74.173,25.197,84.016,4.331,69.055,-11.417; M7.638,18.504C7.638,18.504,19.055,22.441,28.898,35.827C37.574,47.627,55.113,46.798,61.181,46.063C74.173,44.488,91.496,31.102,76.535,15.354; M7.638,18.504C7.638,18.504,17.874,20.078,31.654,31.102C43.091,40.252,48.583,49.213,65.118,51.969C78.027,54.121,91.889,53.937,88.346,37.795; M7.638,18.504C7.638,18.504,14.462,11.811,29.816,21.522C42,29.368,46.412,58.828,60.262,65.486C71.099,70.726,86.115,74.278,86.509,58.924; M7.638,18.504C7.638,18.504,12.362,12.992,30.866,20.079C44.544,25.317,44.435,39.081,52.913,53.543C59.606,64.96,76.929,75.985,85.197,62.205; M7.638,18.504C7.638,18.504,11.544,13.776,31.26,15.748C43.071,16.929,49.947,21.758,58.425,36.22C65.118,47.637,60.787,70.866,75.354,80.315; M7.638,18.504C7.638,18.504,6.923,16.86,24.961,8.661C37.953,2.755,56.246,6.798,64.724,21.26C71.417,32.677,69.068,48.675,65.906,65.748; M7.638,18.504C7.638,18.504,13.528,24.958,25.551,11.417C33.425,4.134,44.737,1.328,57.047,6.299C76.929,17.323,77.717,41.339,68.268,58.268; M7.638,18.504C7.638,18.504,20.134,25.969,26.142,7.087C28.898,-1.574,34.014,-8.078,50.157,-12.598C60,-15.354,89.54,-8.805,86.378,8.268; M7.638,18.504C7.638,18.504,24.174,21.654,26.142,7.087C27.355,-1.887,14.83,-21.499,27.323,-32.677C34.803,-39.37,62.756,-31.496,52.52,-9.055; M7.638,18.504C7.638,18.504,19.787,29.782,27.323,11.811C32.441,-0.394,12.756,-25.196,23.78,-35.039C33.542,-43.755,56.85,-35.04,46.614,-14.961; M7.638,18.504C7.638,18.504,19.787,29.782,27.323,11.811C32.441,-0.394,12.756,-25.196,23.78,-35.039C33.542,-43.755,56.85,-35.04,46.614,-14.961" keyTimes="0; 0.074719; 0.125; 0.16575; 0.2065; 0.247282; 0.28125; 0.327468; 0.368187; 0.40625; 0.447; 0.48775; 0.528531; 0.569281; 0.610031; 0.862762; 1" keySplines="0.333 0 0.667 0.751; 0.282 0.238 0.667 0.751; 0.23 0.194 0.667 0.751; 0.23 0.194 0.667 0.751; 0.23 0.194 0.667 0.751; 0.282 0.238 0.667 0.748; 0.299 0.252 0.667 0.745; 0.23 0.194 0.667 0.745; 0.282 0.238 0.667 0.745; 0.23 0.194 0.667 0.745; 0.23 0.194 0.667 0.745; 0.23 0.194 0.667 0.745; 0.23 0.194 0.667 0.745; 0.23 0.194 0.667 0.745; 0.299 0.252 0.667 1; 0 0 1 1" fill="freeze" /></path></g></g><g transform="matrix(0.861,0,0,0.812,164.778,130.315)" id="i4"><g id="i3"><path d="M7.638,18.504C7.638,18.504,19.787,29.782,27.323,11.811C32.441,-0.394,12.756,-25.196,23.78,-35.039C33.542,-43.755,56.85,-35.04,46.614,-14.961" stroke-linecap="round" stroke-width="13" stroke="#333a4e"><animate repeatCount="indefinite" attributeName="d" dur="1.28s" begin="0s" calcMode="spline" values="M7.638,18.504C7.638,18.504,19.787,29.782,27.323,11.811C32.441,-0.394,12.756,-25.196,23.78,-35.039C33.542,-43.755,56.85,-35.04,46.614,-14.961; M7.638,18.504C7.638,18.504,20.968,32.932,28.504,14.961C33.622,2.756,24.173,-5.905,25.354,-27.165C26.08,-40.232,29.685,-47.638,44.252,-43.307; M7.638,18.504C7.638,18.504,15.906,25.984,27.008,23.622C36.772,18.504,41.496,16.142,38.11,-0.079C31.653,-15.748,25.748,-39.763,36.85,-43.543; M7.638,18.504C7.638,18.504,14.724,25.328,28.556,24.672C34.409,24.41,40.708,20.078,48.556,8.871C56.456,-2.363,57.638,-21.26,40.105,-29.291; M7.638,18.504C7.638,18.504,14.724,25.328,28.556,24.672C34.409,24.41,40.708,20.078,48.556,8.871C56.456,-2.363,57.638,-21.26,40.105,-29.291; M7.638,18.504C7.638,18.504,12.363,24.016,31.654,26.772C46.51,28.894,55.113,27.507,61.181,26.772C74.173,25.197,84.016,4.331,69.055,-11.417; M7.638,18.504C7.638,18.504,19.055,22.441,28.898,35.827C37.574,47.627,55.113,46.798,61.181,46.063C74.173,44.488,91.496,31.102,76.535,15.354; M7.638,18.504C7.638,18.504,17.874,20.078,31.654,31.102C43.091,40.252,48.583,49.213,65.118,51.969C78.027,54.121,91.889,53.937,88.346,37.795; M7.638,18.504C7.638,18.504,14.462,11.811,29.816,21.522C42,29.368,46.412,58.828,60.262,65.486C71.099,70.726,86.115,74.278,86.509,58.924; M7.638,18.504C7.638,18.504,12.362,12.992,30.866,20.079C44.544,25.317,44.435,39.081,52.913,53.543C59.606,64.96,76.929,75.985,85.197,62.205; M7.638,18.504C7.638,18.504,11.544,13.776,31.26,15.748C43.071,16.929,49.947,21.758,58.425,36.22C65.118,47.637,60.787,70.866,75.354,80.315; M7.638,18.504C7.638,18.504,6.923,16.86,24.961,8.661C37.953,2.755,56.246,6.798,64.724,21.26C71.417,32.677,69.068,48.675,65.906,65.748; M7.638,18.504C7.638,18.504,13.528,24.958,25.551,11.417C33.425,4.134,44.737,1.328,57.047,6.299C76.929,17.323,77.717,41.339,68.268,58.268; M7.638,18.504C7.638,18.504,20.134,25.969,26.142,7.087C28.898,-1.574,34.014,-8.078,50.157,-12.598C60,-15.354,89.54,-8.805,86.378,8.268; M7.638,18.504C7.638,18.504,24.174,21.654,26.142,7.087C27.355,-1.887,14.83,-21.499,27.323,-32.677C34.803,-39.37,62.756,-31.496,52.52,-9.055; M7.638,18.504C7.638,18.504,19.787,29.782,27.323,11.811C32.441,-0.394,12.756,-25.196,23.78,-35.039C33.542,-43.755,56.85,-35.04,46.614,-14.961; M7.638,18.504C7.638,18.504,19.787,29.782,27.323,11.811C32.441,-0.394,12.756,-25.196,23.78,-35.039C33.542,-43.755,56.85,-35.04,46.614,-14.961" keyTimes="0; 0.074719; 0.125; 0.16575; 0.2065; 0.247282; 0.28125; 0.327468; 0.368187; 0.40625; 0.447; 0.48775; 0.528531; 0.569281; 0.610031; 0.862762; 1" keySplines="0.333 0 0.667 0.751; 0.282 0.238 0.667 0.751; 0.23 0.194 0.667 0.751; 0.23 0.194 0.667 0.751; 0.23 0.194 0.667 0.751; 0.282 0.238 0.667 0.748; 0.299 0.252 0.667 0.745; 0.23 0.194 0.667 0.745; 0.282 0.238 0.667 0.745; 0.23 0.194 0.667 0.745; 0.23 0.194 0.667 0.745; 0.23 0.194 0.667 0.745; 0.23 0.194 0.667 0.745; 0.23 0.194 0.667 0.745; 0.299 0.252 0.667 1; 0 0 1 1" fill="freeze" /></path></g></g><g id="i5"><g transform="translate(156.589,69.788)"><g transform="rotate(0)"><animateTransform repeatCount="indefinite" type="rotate" attributeName="transform" dur="1.28s" begin="0s" calcMode="spline" values="0; 0; 16; 0; 0" keyTimes="0; 0.125; 0.21875; 0.34375; 1" keySplines="0 0 1 1; 0.333 0 0.667 1; 0.333 0 0.667 1; 0 0 1 1" fill="freeze" /><g transform="scale(1,1) translate(-7.856,-17.275)"><g id="i6" transform="matrix(1,0,0,1,7.856,17.275)"><path fill="#212432" d="M6.19,-12.905C6,-15.952,2.151,-17.025,0.681,-14.349C0.681,-14.349,-7.607,-4.578,-7.607,-4.578C-7.607,-4.578,5.423,17.025,5.423,17.025C5.423,17.025,7.607,9.782,6.19,-12.905Z" /></g></g></g></g></g><g id="i7"><g transform="translate(132.432,63.714)"><g transform="rotate(0)"><animateTransform repeatCount="indefinite" type="rotate" attributeName="transform" dur="1.28s" begin="0s" calcMode="spline" values="0; 0; -16; 0; 0" keyTimes="0; 0.125; 0.21875; 0.34375; 1" keySplines="0 0 1 1; 0.333 0 0.667 1; 0.333 0 0.667 1; 0 0 1 1" fill="freeze" /><g transform="scale(1,1) translate(-7.207,-11.228)"><g id="i6" transform="matrix(1,0,0,1,7.207,11.228)"><path fill="#212432" d="M6.957,-2.142C6.957,-2.142,1.453,-8.288,1.453,-8.288C0.011,-10.978,-4.07,-9.953,-4.07,-6.9C-4.07,-6.9,-6.957,10.978,-6.957,10.978C-6.957,10.978,6.957,-2.142,6.957,-2.142Z" /></g></g></g></g></g><g transform="matrix(1,0,0,1,111.138,85.053)" id="i8"><g id="i6" transform="matrix(1,0,0,1,34.667,38.551)"><path fill="#333a4e" d="M30.133,34.363C32.884,27.219,34.418,18.992,34.339,10.247C34.096,-16.582,18.458,-38.301,-0.396,-38.027C-19.218,-37.753,-34.417,-15.957,-34.417,10.891C-34.417,19.411,-32.886,27.422,-30.195,34.398C-29.26,36.821,-27.453,38.301,-25.51,38.301C-25.51,38.301,25.434,38.301,25.434,38.301C27.387,38.301,29.196,36.8,30.133,34.363Z" /></g></g><g transform="matrix(1,0,0,1,117.347,59.809)" id="i9"><g id="i6" transform="matrix(1,0,0,1,22.961,52.658)"><path fill="#333a4e" d="M0.001,49.471C0.001,49.471,0.001,49.471,0.001,49.471C-12.49,49.471,-22.711,39.251,-22.711,26.76C-22.711,26.76,-22.711,-29.697,-22.711,-29.697C-22.711,-42.188,-12.49,-52.408,0.001,-52.408C12.492,-52.408,22.711,-42.188,22.711,-29.697C22.711,-29.697,22.711,34.865,22.711,34.865C22.711,45.659,12.952,37.892,12.952,42.408C12.952,52.408,3.958,48.84,0.001,49.471Z" /></g></g><g transform="matrix(1,0,0,1,119.126,153.507)" id="i10"><g id="i6" transform="matrix(1,0,0,1,6.144,4.34)"><path fill="#333a4e" d="M3.748,4.027C5.058,3.187,5.894,1.916,5.894,0.492C5.894,-2.038,3.255,-4.09,0,-4.09C-3.255,-4.09,-5.894,-2.038,-5.894,0.492C-5.894,1.757,-4.979,3.261,-3.912,4.09C-3.912,4.09,3.748,4.027,3.748,4.027Z" /></g></g><g transform="matrix(1,0,0,1,149.534,142.169)" id="i11"><g id="i6" transform="matrix(1,0,0,1,4.269,9.999)"><path fill="#bac1d8" d="M-3.946,9.749C-3.946,9.749,-0.511,7.996,-2.119,4.342C-2.661,3.017,-4.019,2.515,-4.019,2.515C-4.019,2.515,-1.48,-9.227,-1.48,-9.227C-1.376,-9.707,-0.707,-9.749,-0.553,-9.282C0.246,-6.868,1.858,-2.42,3.824,0.746C4.019,1.06,3.822,1.46,3.452,1.477C2.316,1.529,0.408,1.89,0,3.685C-0.408,5.478,0.132,9.156,2.032,9.741C2.032,9.741,-3.946,9.749,-3.946,9.749Z" /></g></g><g transform="matrix(1,0,0,1,122.367,80.9)" id="i12"><g id="i6" transform="matrix(1,0,0,1,11.608,40.651)"><path fill="#d9deed" d="M10.421,-10.549C11.062,-12.101,11.357,-13.777,11.113,-15.439C10.22,-21.536,7.337,-35.722,-0.361,-37.775C-10.209,-40.401,-11.358,-23.988,-9.717,-12.991C-8.076,-1.994,-5.284,-7.738,-4.135,10.808C-2.986,29.355,-2.379,36.266,-3.189,38.32C-3.666,39.53,-4.956,40.352,-4.956,40.352C-4.956,40.352,8.84,40.401,8.84,40.401C8.84,40.401,6.204,38.383,6.04,33.459C5.886,28.843,5.589,1.145,10.421,-10.549Z" /></g></g><g transform="matrix(1,0,0,1,133.364,67.34)" id="i13"><g id="i6" transform="matrix(1,0,0,1,4.076,1.879)"><path fill="#020100" d="M1.084,-0.346C-1.078,-1.629,-3.826,-0.507,-2.139,0.561C-0.451,1.629,3.826,1.28,1.084,-0.346Z" /></g></g></svg>