<svg fill="none" height="100%" width="100%" viewBox="0 0 1400 1400" xmlns:xlink="http://www.w3.org/1999/xlink" xmlns="http://www.w3.org/2000/svg"><g transform="matrix(1,0,0,1,699.714,699.806)" id="i0"><g transform="matrix(1,0,0,1,18.848,423.806)" id="i1"><g id="i1"><ellipse ry="125.5" rx="342.5" cy="0" cx="0" fill="#7adaff" /></g></g></g><g transform="matrix(1,0,0,1,699.714,699.806)" id="i0"><g transform="matrix(1,0,0,1,-182.596,47.306)" id="i2"><g id="i2"><path fill="#000000" d="M51.943,310C51.943,310,53.943,113,53.943,113C57.807,68.554,86.745,0,215.943,0C302.372,0,341.943,80.739,341.943,110C341.943,110,344.943,299,344.943,299C347.051,309.371,357.177,333.777,379.943,348C408.401,365.778,394.482,373.445,344.943,369C305.312,365.444,289.753,328.778,286.943,311C286.943,311,286.943,159,286.943,159C276.825,118.11,270.051,115.295,267.943,119C267.943,119,267.943,348,267.943,348C266.889,373.556,284.835,388.778,286.943,391C289.051,393.222,320.751,426.111,265.943,415C222.096,406.111,208.349,371.296,206.943,355C206.943,355,206.943,106,206.943,106C200.197,93.555,192.105,100.815,188.943,106C190.349,177.113,192.316,326.555,188.943,355C185.57,383.445,155.051,405.593,139.943,413C79.865,431.89,93.133,398.667,108.943,392C121.591,386.667,126.889,368.518,127.943,360C128.645,297.776,129.943,166.89,129.943,142C129.943,117.11,127.349,112.889,125.943,114C114.981,111.333,109.997,138.295,108.943,152C108.943,152,108.943,310,108.943,310C94.187,368.891,29.321,373.111,21.943,372C14.565,370.889,-17.623,362.111,12.943,351C37.396,342.111,49.133,320,51.943,310Z" /></g></g></g><g transform="matrix(1,0,0,1,699.714,699.806)" id="i0"><g id="i3"><g transform="translate(0,-223.421)"><g transform="rotate(0)"><animateTransform repeatCount="indefinite" type="rotate" attributeName="transform" dur="16.05s" begin="0s" calcMode="spline" values="0; 0; -5; 5; 0; 0; -5; 5; 0; 0" keyTimes="0; 0.29595; 0.307373; 0.319834; 0.330218; 0.758048; 0.770509; 0.78297; 0.794393; 1" keySplines="0 0 1 1; 0.98 0 0.667 1; 1 0 0.667 1; 1 0 0.667 1; 0.374 0 0.621 1; 0.333 0 0 1; 0.333 0 0 1; 0.333 0 0 1; 0 0 1 1" fill="freeze" /><g transform="scale(1,1) translate(0,0)"><g transform="matrix(1,0,0,1,-1.692,-219.148)" id="i4"><g transform="matrix(1,0,0,1,-316.914,-106.384)" id="i5"><g id="i5"><path fill="#000000" d="M16.956,0.881C-13.754,88.014,4.16,156.005,16.956,179.108C16.956,179.108,172.935,60.811,172.935,60.811C110.348,3.695,42.872,-2.941,16.956,0.881Z" /></g></g></g></g></g></g></g></g><g transform="matrix(1,0,0,1,699.714,699.806)" id="i0"><g id="i3"><g transform="translate(0,-223.421)"><g transform="rotate(0)"><animateTransform repeatCount="indefinite" type="rotate" attributeName="transform" dur="16.05s" begin="0s" calcMode="spline" values="0; 0; -5; 5; 0; 0; -5; 5; 0; 0" keyTimes="0; 0.29595; 0.307373; 0.319834; 0.330218; 0.758048; 0.770509; 0.78297; 0.794393; 1" keySplines="0 0 1 1; 0.98 0 0.667 1; 1 0 0.667 1; 1 0 0.667 1; 0.374 0 0.621 1; 0.333 0 0 1; 0.333 0 0 1; 0.333 0 0 1; 0 0 1 1" fill="freeze" /><g transform="scale(1,1) translate(0,0)"><g transform="matrix(1,0,0,1,-1.692,-219.148)" id="i4"><g id="i6"><g transform="translate(217.239,0)"><g transform="rotate(0)"><animateTransform repeatCount="indefinite" type="rotate" attributeName="transform" dur="16.05s" begin="0s" calcMode="spline" values="0; 0; 10; 0; 0; 10; 0; 0; 10; 0; 0; 10; 0; 0" keyTimes="0; 0.114226; 0.12461; 0.137071; 0.360332; 0.370717; 0.383177; 0.688474; 0.698857; 0.711319; 0.96054; 0.970924; 0.983385; 1" keySplines="0 0 1 1; 0.333 0 0.667 1; 0.333 0 0.667 1; 0.333 0 0.667 1; 0.333 0 0.667 1; 0.333 0 0.667 1; 0.333 0 0.667 1; 0.333 0 0.667 1; 0.333 0 0.667 1; 0.333 0 0.667 1; 0.333 0 0.667 1; 0.333 0 0.667 1; 0 0 1 1" fill="freeze" /><g transform="scale(1,1) translate(-99.675,-106.738)"><g id="i6"><path fill="#000000" d="M157.068,213.475C157.068,213.475,231.862,158.128,182.498,0.312C182.498,-0.436,67.315,-6.419,0,95.301C1.496,95.301,157.068,213.475,157.068,213.475Z" /></g></g></g></g></g></g></g></g></g></g></g><g transform="matrix(1,0,0,1,699.714,699.806)" id="i0"><g id="i3"><g transform="translate(0,-223.421)"><g transform="rotate(0)"><animateTransform repeatCount="indefinite" type="rotate" attributeName="transform" dur="16.05s" begin="0s" calcMode="spline" values="0; 0; -5; 5; 0; 0; -5; 5; 0; 0" keyTimes="0; 0.29595; 0.307373; 0.319834; 0.330218; 0.758048; 0.770509; 0.78297; 0.794393; 1" keySplines="0 0 1 1; 0.98 0 0.667 1; 1 0 0.667 1; 1 0 0.667 1; 0.374 0 0.621 1; 0.333 0 0 1; 0.333 0 0 1; 0.333 0 0 1; 0 0 1 1" fill="freeze" /><g transform="scale(1,1) translate(0,0)"><g transform="matrix(1,0,0,1,-1.692,-219.148)" id="i4"><rect height="213.475" width="633.827" y="-106.737" x="-316.913" /></g></g></g></g></g></g><g transform="matrix(1,0,0,1,699.714,699.806)" id="i0"><g id="i3"><g transform="translate(0,-223.421)"><g transform="rotate(0)"><animateTransform repeatCount="indefinite" type="rotate" attributeName="transform" dur="16.05s" begin="0s" calcMode="spline" values="0; 0; -5; 5; 0; 0; -5; 5; 0; 0" keyTimes="0; 0.29595; 0.307373; 0.319834; 0.330218; 0.758048; 0.770509; 0.78297; 0.794393; 1" keySplines="0 0 1 1; 0.98 0 0.667 1; 1 0 0.667 1; 1 0 0.667 1; 0.374 0 0.621 1; 0.333 0 0 1; 0.333 0 0 1; 0.333 0 0 1; 0 0 1 1" fill="freeze" /><g transform="scale(1,1) translate(0,0)"><g transform="matrix(1,0,0,1,-407.951,179.627)" id="i7"><g id="i8"><g transform="translate(-7.157,-25.261)"><g transform="rotate(0)"><animateTransform repeatCount="indefinite" type="rotate" attributeName="transform" dur="16.05s" begin="0s" calcMode="spline" values="0; 0; 10; 0; 0; 10; 0; 0" keyTimes="0; 0.364486; 0.417445; 0.464174; 0.860852; 0.913811; 0.96054; 1" keySplines="0 0 1 1; 0.333 0 0.667 1; 0.333 0 0.667 1; 0.333 0 0.667 1; 0.333 0 0.667 1; 0.333 0 0.667 1; 0 0 1 1" fill="freeze" /><g transform="scale(1,1) translate(-197.545,-8.931)"><g id="i8"><path stroke-width="1" stroke="#000000" d="M0,17.862C104.5,4.859,327.228,-8.57,395.089,7.01" /></g></g></g></g></g></g></g></g></g></g></g><g transform="matrix(1,0,0,1,699.714,699.806)" id="i0"><g id="i3"><g transform="translate(0,-223.421)"><g transform="rotate(0)"><animateTransform repeatCount="indefinite" type="rotate" attributeName="transform" dur="16.05s" begin="0s" calcMode="spline" values="0; 0; -5; 5; 0; 0; -5; 5; 0; 0" keyTimes="0; 0.29595; 0.307373; 0.319834; 0.330218; 0.758048; 0.770509; 0.78297; 0.794393; 1" keySplines="0 0 1 1; 0.98 0 0.667 1; 1 0 0.667 1; 1 0 0.667 1; 0.374 0 0.621 1; 0.333 0 0 1; 0.333 0 0 1; 0.333 0 0 1; 0 0 1 1" fill="freeze" /><g transform="scale(1,1) translate(0,0)"><g transform="matrix(1,0,0,1,-407.951,179.627)" id="i7"><g id="i9"><g transform="translate(3.118,14.195)"><g transform="rotate(0)"><animateTransform repeatCount="indefinite" type="rotate" attributeName="transform" dur="16.05s" begin="0s" calcMode="spline" values="0; 0; -10; 0; 0; -10; 0; 0" keyTimes="0; 0.126687; 0.180685; 0.231568; 0.647975; 0.701973; 0.752856; 1" keySplines="0 0 1 1; 0.834 0 0.293 1; 0.947 0 0.208 1; 0.167 0 0.667 1; 0.834 0 0.293 1; 0.947 0 0.208 1; 0 0 1 1" fill="freeze" /><g transform="scale(1,1) translate(-201.583,-19.996)"><g id="i9"><path stroke-width="1" stroke="#000000" d="M0,39.992C105.457,20.854,333.727,-12.909,403.166,5.147" /></g></g></g></g></g></g></g></g></g></g></g><g transform="matrix(1,0,0,1,699.714,699.806)" id="i0"><g id="i3"><g transform="translate(0,-223.421)"><g transform="rotate(0)"><animateTransform repeatCount="indefinite" type="rotate" attributeName="transform" dur="16.05s" begin="0s" calcMode="spline" values="0; 0; -5; 5; 0; 0; -5; 5; 0; 0" keyTimes="0; 0.29595; 0.307373; 0.319834; 0.330218; 0.758048; 0.770509; 0.78297; 0.794393; 1" keySplines="0 0 1 1; 0.98 0 0.667 1; 1 0 0.667 1; 1 0 0.667 1; 0.374 0 0.621 1; 0.333 0 0 1; 0.333 0 0 1; 0.333 0 0 1; 0 0 1 1" fill="freeze" /><g transform="scale(1,1) translate(0,0)"><g transform="matrix(1,0,0,1,-407.951,179.627)" id="i7"><rect height="68.383" width="409.403" y="-34.191" x="-204.702" /></g></g></g></g></g></g><g transform="matrix(1,0,0,1,699.714,699.806)" id="i0"><g id="i3"><g transform="translate(0,-223.421)"><g transform="rotate(0)"><animateTransform repeatCount="indefinite" type="rotate" attributeName="transform" dur="16.05s" begin="0s" calcMode="spline" values="0; 0; -5; 5; 0; 0; -5; 5; 0; 0" keyTimes="0; 0.29595; 0.307373; 0.319834; 0.330218; 0.758048; 0.770509; 0.78297; 0.794393; 1" keySplines="0 0 1 1; 0.98 0 0.667 1; 1 0 0.667 1; 1 0 0.667 1; 0.374 0 0.621 1; 0.333 0 0 1; 0.333 0 0 1; 0.333 0 0 1; 0 0 1 1" fill="freeze" /><g transform="scale(1,1) translate(0,0)"><g transform="matrix(1,0,0,1,420.42,179.354)" id="i10"><g id="i11"><g transform="translate(6.721,-25.261)"><g transform="rotate(0)"><animateTransform repeatCount="indefinite" type="rotate" attributeName="transform" dur="16.05s" begin="0s" calcMode="spline" values="0; 0; -10; 0; 0; -10; 0; 0" keyTimes="0; 0.364486; 0.417445; 0.463136; 0.860852; 0.913811; 0.959502; 1" keySplines="0 0 1 1; 0.333 0 0.667 1; 0.333 0 0.667 1; 0.333 0 0.667 1; 0.333 0 0.667 1; 0.333 0 0.667 1; 0 0 1 1" fill="freeze" /><g transform="scale(1,1) translate(-185.511,-8.931)"><g id="i11"><path stroke-width="1" stroke="#000000" d="M371.023,17.862C272.89,4.859,63.728,-8.569,0,7.009" /></g></g></g></g></g></g></g></g></g></g></g><g transform="matrix(1,0,0,1,699.714,699.806)" id="i0"><g id="i3"><g transform="translate(0,-223.421)"><g transform="rotate(0)"><animateTransform repeatCount="indefinite" type="rotate" attributeName="transform" dur="16.05s" begin="0s" calcMode="spline" values="0; 0; -5; 5; 0; 0; -5; 5; 0; 0" keyTimes="0; 0.29595; 0.307373; 0.319834; 0.330218; 0.758048; 0.770509; 0.78297; 0.794393; 1" keySplines="0 0 1 1; 0.98 0 0.667 1; 1 0 0.667 1; 1 0 0.667 1; 0.374 0 0.621 1; 0.333 0 0 1; 0.333 0 0 1; 0.333 0 0 1; 0 0 1 1" fill="freeze" /><g transform="scale(1,1) translate(0,0)"><g transform="matrix(1,0,0,1,420.42,179.354)" id="i10"><g id="i12"><g transform="translate(-2.927,14.196)"><g transform="rotate(0)"><animateTransform repeatCount="indefinite" type="rotate" attributeName="transform" dur="16.05s" begin="0s" calcMode="spline" values="0; 0; 10; 0; 0; 10; 0; 0" keyTimes="0; 0.126687; 0.176532; 0.223261; 0.650052; 0.699896; 0.746625; 1" keySplines="0 0 1 1; 0.763 0 0.261 1; 0.86 0 0.169 1; 0.167 0 0.833 1; 0.763 0 0.261 1; 0.86 0 0.169 1; 0 0 1 1" fill="freeze" /><g transform="scale(1,1) translate(-189.306,-19.996)"><g id="i12"><path stroke-width="1" stroke="#000000" d="M378.611,39.993C279.577,20.855,65.21,-12.909,0,5.147" /></g></g></g></g></g></g></g></g></g></g></g><g transform="matrix(1,0,0,1,699.714,699.806)" id="i0"><g id="i3"><g transform="translate(0,-223.421)"><g transform="rotate(0)"><animateTransform repeatCount="indefinite" type="rotate" attributeName="transform" dur="16.05s" begin="0s" calcMode="spline" values="0; 0; -5; 5; 0; 0; -5; 5; 0; 0" keyTimes="0; 0.29595; 0.307373; 0.319834; 0.330218; 0.758048; 0.770509; 0.78297; 0.794393; 1" keySplines="0 0 1 1; 0.98 0 0.667 1; 1 0 0.667 1; 1 0 0.667 1; 0.374 0 0.621 1; 0.333 0 0 1; 0.333 0 0 1; 0.333 0 0 1; 0 0 1 1" fill="freeze" /><g transform="scale(1,1) translate(0,0)"><g transform="matrix(1,0,0,1,420.42,179.354)" id="i10"><rect height="68.384" width="384.465" y="-34.192" x="-192.232" /></g></g></g></g></g></g><g transform="matrix(1,0,0,1,699.714,699.806)" id="i0"><g id="i3"><g transform="translate(0,-223.421)"><g transform="rotate(0)"><animateTransform repeatCount="indefinite" type="rotate" attributeName="transform" dur="16.05s" begin="0s" calcMode="spline" values="0; 0; -5; 5; 0; 0; -5; 5; 0; 0" keyTimes="0; 0.29595; 0.307373; 0.319834; 0.330218; 0.758048; 0.770509; 0.78297; 0.794393; 1" keySplines="0 0 1 1; 0.98 0 0.667 1; 1 0 0.667 1; 1 0 0.667 1; 0.374 0 0.621 1; 0.333 0 0 1; 0.333 0 0 1; 0.333 0 0 1; 0 0 1 1" fill="freeze" /><g transform="scale(1,1) translate(0,0)"><g transform="matrix(1,0,0,1,-353.08,-283.489)" id="i13"><g id="i13"><path fill="#000000" d="M722.427,320.215C731.755,537.007,556.538,586.384,468.427,582.215C442.186,599.933,413.158,606.608,369.427,609.215C334.44,611.299,287.027,592.291,267.427,582.215C136.814,582.215,57.427,496.599,34.427,454.215C-39.432,274.527,22.583,154.258,62.427,116.215C88.868,69.445,183.32,20.057,221.427,14.215C361.857,-18.616,463.289,15.943,494.427,14.215C519.632,12.817,617.308,71.952,661.427,110.215C727.511,178.171,722.427,274.876,722.427,320.215Z" /></g></g></g></g></g></g></g><g transform="matrix(1,0,0,1,699.714,699.806)" id="i0"><g id="i3"><g transform="translate(0,-223.421)"><g transform="rotate(0)"><animateTransform repeatCount="indefinite" type="rotate" attributeName="transform" dur="16.05s" begin="0s" calcMode="spline" values="0; 0; -5; 5; 0; 0; -5; 5; 0; 0" keyTimes="0; 0.29595; 0.307373; 0.319834; 0.330218; 0.758048; 0.770509; 0.78297; 0.794393; 1" keySplines="0 0 1 1; 0.98 0 0.667 1; 1 0 0.667 1; 1 0 0.667 1; 0.374 0 0.621 1; 0.333 0 0 1; 0.333 0 0 1; 0.333 0 0 1; 0 0 1 1" fill="freeze" /><g transform="scale(1,1) translate(0,0)"><g transform="matrix(1,0,0,1,-261.152,-32.783)" id="m14"><g id="m14"><path stroke-width="1" stroke="#000000" fill="#fcd2bc" d="M287,307.01C332.291,306.903,377.146,303.621,422,297.01C457.086,291.027,489.386,277.013,513,249.01C536.614,221.007,546.476,180.445,548,143.01C548.023,123.865,545.95,105.697,539,88.01C532.05,70.323,523.857,53.53,511,40.01C471.411,-1.703,423.212,0.01,414,0.01C304.805,6.908,243.298,8.03,136,0.01C99.331,0.014,61.929,11.676,36,39.01C10.071,66.344,0.004,104.353,0,143.01C1.355,181.374,22.218,218.88,47,247.01C70.59,273.409,119.619,291.415,138,296.01C187.334,303.784,237.116,307.106,287,307.01Z" /></g></g></g></g></g></g></g><g transform="matrix(1,0,0,1,699.714,699.806)" id="i0"><g id="i3"><g transform="translate(0,-223.421)"><g transform="rotate(0)"><animateTransform repeatCount="indefinite" type="rotate" attributeName="transform" dur="16.05s" begin="0s" calcMode="spline" values="0; 0; -5; 5; 0; 0; -5; 5; 0; 0" keyTimes="0; 0.29595; 0.307373; 0.319834; 0.330218; 0.758048; 0.770509; 0.78297; 0.794393; 1" keySplines="0 0 1 1; 0.98 0 0.667 1; 1 0 0.667 1; 1 0 0.667 1; 0.374 0 0.621 1; 0.333 0 0 1; 0.333 0 0 1; 0.333 0 0 1; 0 0 1 1" fill="freeze" /><g transform="scale(1,1) translate(0,0)"><g id="i15"><g transform="translate(13.235,181.342)"><animateTransform repeatCount="indefinite" type="translate" attributeName="transform" dur="16.05s" begin="0s" calcMode="spline" values="13.235 181.342; 13.235 181.342; 13.235 169.342; 13.235 181.342; 13.235 181.342; 13.235 169.342; 13.235 181.342; 13.235 181.342; 13.235 169.342; 13.235 181.342; 13.235 181.342; 13.235 169.342; 13.235 181.342; 13.235 181.342" keyTimes="0; 0.124611; 0.13811; 0.15161; 0.370716; 0.384216; 0.397716; 0.616822; 0.630322; 0.643822; 0.867082; 0.880581; 0.894081; 1" keySplines="0 0 1 1; 0.333 0 0.667 1; 0.333 0 0.667 1; 0 0 1 1; 0.333 0 0.667 1; 0.333 0 0.667 1; 0 0 1 1; 0.333 0 0.667 1; 0.333 0 0.667 1; 0 0 1 1; 0.333 0 0.667 1; 0.333 0 0.667 1; 0 0 1 1" fill="freeze" /><g transform="scale(1,1) translate(-14.125,-14.617)"><g id="i15"><path fill="#000000" d="M28.238,14.003C28.348,16.93,27.701,20.512,26.238,23.003C24.773,25.494,22.774,26.803,20.238,28.003C17.702,29.203,13.976,29.505,11.238,29.003C8.5,28.503,6.241,28.034,4.238,26.003C2.235,23.972,0.82,20.868,0.238,18.003C-0.344,15.136,0.199,12.721,1.238,10.003C2.277,7.285,3.934,4.641,6.238,3.003C8.542,1.363,11.457,0.001,14.238,0.003C17.857,-0.068,21.628,1.356,24.238,4.003C26.845,6.65,28.166,10.187,28.238,14.003C28.238,14.003,28.238,14.003,28.238,14.003Z" /></g></g></g></g></g></g></g></g></g><g transform="matrix(1,0,0,1,699.714,699.806)" id="i0"><g id="i3"><g transform="translate(0,-223.421)"><g transform="rotate(0)"><animateTransform repeatCount="indefinite" type="rotate" attributeName="transform" dur="16.05s" begin="0s" calcMode="spline" values="0; 0; -5; 5; 0; 0; -5; 5; 0; 0" keyTimes="0; 0.29595; 0.307373; 0.319834; 0.330218; 0.758048; 0.770509; 0.78297; 0.794393; 1" keySplines="0 0 1 1; 0.98 0 0.667 1; 1 0 0.667 1; 1 0 0.667 1; 0.374 0 0.621 1; 0.333 0 0 1; 0.333 0 0 1; 0.333 0 0 1; 0 0 1 1" fill="freeze" /><g transform="scale(1,1) translate(0,0)"><g id="i16"><g transform="translate(14.348,227.336)"><animateTransform repeatCount="indefinite" type="translate" attributeName="transform" dur="16.05s" begin="0s" calcMode="spline" values="14.348 227.336; 14.348 227.336; 14.348 215.336; 14.348 227.336; 14.348 227.336; 14.348 215.336; 14.348 227.336; 14.348 227.336; 14.348 215.336; 14.348 227.336; 14.348 227.336; 14.348 215.336; 14.348 227.336; 14.348 227.336" keyTimes="0; 0.124611; 0.139148; 0.15161; 0.370716; 0.385254; 0.397716; 0.616822; 0.631361; 0.643822; 0.867082; 0.88162; 0.894081; 1" keySplines="0 0 1 1; 0.333 0 0.667 1; 0.333 0 0.667 1; 0 0 1 1; 0.333 0 0.667 1; 0.333 0 0.667 1; 0 0 1 1; 0.333 0 0.667 1; 0.333 0 0.667 1; 0 0 1 1; 0.333 0 0.667 1; 0.333 0 0.667 1; 0 0 1 1" fill="freeze" /><g transform="scale(1,1) translate(-29.5,-12.11)"><g id="i16"><path stroke-linecap="round" stroke-width="4" stroke="#000000" d="M0,0C4.84,16.072,18.834,25.829,33,24C38.888,23.113,44.464,20.107,49,16C53.539,11.893,57.213,7.06,59,1" /></g></g></g></g></g></g></g></g></g><g transform="matrix(1,0,0,1,699.714,699.806)" id="i0"><g id="i3"><g transform="translate(0,-223.421)"><g transform="rotate(0)"><animateTransform repeatCount="indefinite" type="rotate" attributeName="transform" dur="16.05s" begin="0s" calcMode="spline" values="0; 0; -5; 5; 0; 0; -5; 5; 0; 0" keyTimes="0; 0.29595; 0.307373; 0.319834; 0.330218; 0.758048; 0.770509; 0.78297; 0.794393; 1" keySplines="0 0 1 1; 0.98 0 0.667 1; 1 0 0.667 1; 1 0 0.667 1; 0.374 0 0.621 1; 0.333 0 0 1; 0.333 0 0 1; 0.333 0 0 1; 0 0 1 1" fill="freeze" /><g transform="scale(1,1) translate(0,0)"><g transform="matrix(1,0,0,1,-135.652,104.727)" id="i17"><g transform="matrix(1,0,0,1,-57,-88)" id="i18"><g id="i18"><path fill="#ffffff" d="M57,176C88.422,176,114,136.419,114,88C114,39.581,88.422,0,57,0C25.578,0,0,39.581,0,88C0,136.419,25.578,176,57,176Z" /></g></g></g></g></g></g></g></g><g transform="matrix(1,0,0,1,699.714,699.806)" id="i0"><g id="i3"><g transform="translate(0,-223.421)"><g transform="rotate(0)"><animateTransform repeatCount="indefinite" type="rotate" attributeName="transform" dur="16.05s" begin="0s" calcMode="spline" values="0; 0; -5; 5; 0; 0; -5; 5; 0; 0" keyTimes="0; 0.29595; 0.307373; 0.319834; 0.330218; 0.758048; 0.770509; 0.78297; 0.794393; 1" keySplines="0 0 1 1; 0.98 0 0.667 1; 1 0 0.667 1; 1 0 0.667 1; 0.374 0 0.621 1; 0.333 0 0 1; 0.333 0 0 1; 0.333 0 0 1; 0 0 1 1" fill="freeze" /><g transform="scale(1,1) translate(0,0)"><g transform="matrix(1,0,0,1,-135.652,104.727)" id="i17"><g transform="matrix(1,0,0,1,-33,-58)" id="i19"><g id="i19"><path fill="#000000" d="M38,117C58.863,117,75,91.146,75,59C75,26.857,58.863,0,38,0C17.137,0,0,26.857,0,59C0,91.146,17.137,117,38,117Z" /></g></g></g></g></g></g></g></g><g transform="matrix(1,0,0,1,699.714,699.806)" id="i0"><g id="i3"><g transform="translate(0,-223.421)"><g transform="rotate(0)"><animateTransform repeatCount="indefinite" type="rotate" attributeName="transform" dur="16.05s" begin="0s" calcMode="spline" values="0; 0; -5; 5; 0; 0; -5; 5; 0; 0" keyTimes="0; 0.29595; 0.307373; 0.319834; 0.330218; 0.758048; 0.770509; 0.78297; 0.794393; 1" keySplines="0 0 1 1; 0.98 0 0.667 1; 1 0 0.667 1; 1 0 0.667 1; 0.374 0 0.621 1; 0.333 0 0 1; 0.333 0 0 1; 0.333 0 0 1; 0 0 1 1" fill="freeze" /><g transform="scale(1,1) translate(0,0)"><g transform="matrix(1,0,0,1,-135.652,104.727)" id="i17"><g transform="matrix(1,0,0,1,-21,-37)" id="i20"><g id="i20"><path fill="#ffffff" d="M11,24C17.229,24,23,18.567,23,12C23,5.433,17.229,0,11,0C4.771,0,0,5.433,0,12C0,18.567,4.771,24,11,24Z" /></g></g></g></g></g></g></g></g><g transform="matrix(1,0,0,1,699.714,699.806)" id="i0"><g id="i3"><g transform="translate(0,-223.421)"><g transform="rotate(0)"><animateTransform repeatCount="indefinite" type="rotate" attributeName="transform" dur="16.05s" begin="0s" calcMode="spline" values="0; 0; -5; 5; 0; 0; -5; 5; 0; 0" keyTimes="0; 0.29595; 0.307373; 0.319834; 0.330218; 0.758048; 0.770509; 0.78297; 0.794393; 1" keySplines="0 0 1 1; 0.98 0 0.667 1; 1 0 0.667 1; 1 0 0.667 1; 0.374 0 0.621 1; 0.333 0 0 1; 0.333 0 0 1; 0.333 0 0 1; 0 0 1 1" fill="freeze" /><g transform="scale(1,1) translate(0,0)"><g transform="matrix(1,0,0,1,-135.652,104.727)" id="i17"><rect height="176" width="114" y="-88" x="-57" /></g></g></g></g></g></g><g transform="matrix(1,0,0,1,699.714,699.806)" id="i0"><g id="i3"><g transform="translate(0,-223.421)"><g transform="rotate(0)"><animateTransform repeatCount="indefinite" type="rotate" attributeName="transform" dur="16.05s" begin="0s" calcMode="spline" values="0; 0; -5; 5; 0; 0; -5; 5; 0; 0" keyTimes="0; 0.29595; 0.307373; 0.319834; 0.330218; 0.758048; 0.770509; 0.78297; 0.794393; 1" keySplines="0 0 1 1; 0.98 0 0.667 1; 1 0 0.667 1; 1 0 0.667 1; 0.374 0 0.621 1; 0.333 0 0 1; 0.333 0 0 1; 0.333 0 0 1; 0 0 1 1" fill="freeze" /><g transform="scale(1,1) translate(0,0)"><g transform="matrix(1,0,0,1,169.848,105.227)" id="i21"><g transform="matrix(1,0,0,1,-56.5,-87.5)" id="i22"><g id="i22"><path fill="#ffffff" d="M57,175C88.422,175,113,136.419,113,88C113,39.581,88.422,0,57,0C25.578,0,0,39.581,0,88C0,136.419,25.578,175,57,175Z" /></g></g></g></g></g></g></g></g><g transform="matrix(1,0,0,1,699.714,699.806)" id="i0"><g id="i3"><g transform="translate(0,-223.421)"><g transform="rotate(0)"><animateTransform repeatCount="indefinite" type="rotate" attributeName="transform" dur="16.05s" begin="0s" calcMode="spline" values="0; 0; -5; 5; 0; 0; -5; 5; 0; 0" keyTimes="0; 0.29595; 0.307373; 0.319834; 0.330218; 0.758048; 0.770509; 0.78297; 0.794393; 1" keySplines="0 0 1 1; 0.98 0 0.667 1; 1 0 0.667 1; 1 0 0.667 1; 0.374 0 0.621 1; 0.333 0 0 1; 0.333 0 0 1; 0.333 0 0 1; 0 0 1 1" fill="freeze" /><g transform="scale(1,1) translate(0,0)"><g transform="matrix(1,0,0,1,169.848,105.227)" id="i21"><g transform="matrix(1,0,0,1,-43.5,-57.5)" id="i23"><g id="i23"><path fill="#000000" d="M38,116C58.863,116,76,90.143,76,58C76,25.857,58.863,0,38,0C17.137,0,0,25.857,0,58C0,90.143,17.137,116,38,116Z" /></g></g></g></g></g></g></g></g><g transform="matrix(1,0,0,1,699.714,699.806)" id="i0"><g id="i3"><g transform="translate(0,-223.421)"><g transform="rotate(0)"><animateTransform repeatCount="indefinite" type="rotate" attributeName="transform" dur="16.05s" begin="0s" calcMode="spline" values="0; 0; -5; 5; 0; 0; -5; 5; 0; 0" keyTimes="0; 0.29595; 0.307373; 0.319834; 0.330218; 0.758048; 0.770509; 0.78297; 0.794393; 1" keySplines="0 0 1 1; 0.98 0 0.667 1; 1 0 0.667 1; 1 0 0.667 1; 0.374 0 0.621 1; 0.333 0 0 1; 0.333 0 0 1; 0.333 0 0 1; 0 0 1 1" fill="freeze" /><g transform="scale(1,1) translate(0,0)"><g transform="matrix(1,0,0,1,169.848,105.227)" id="i21"><g transform="matrix(1,0,0,1,-28.5,-36.5)" id="i24"><g id="i24"><path fill="#ffffff" d="M11,22C16.671,22,21,16.978,21,11C21,5.024,16.671,0,11,0C5.329,0,0,5.024,0,11C0,16.978,5.329,22,11,22Z" /></g></g></g></g></g></g></g></g><g transform="matrix(1,0,0,1,699.714,699.806)" id="i0"><g id="i3"><g transform="translate(0,-223.421)"><g transform="rotate(0)"><animateTransform repeatCount="indefinite" type="rotate" attributeName="transform" dur="16.05s" begin="0s" calcMode="spline" values="0; 0; -5; 5; 0; 0; -5; 5; 0; 0" keyTimes="0; 0.29595; 0.307373; 0.319834; 0.330218; 0.758048; 0.770509; 0.78297; 0.794393; 1" keySplines="0 0 1 1; 0.98 0 0.667 1; 1 0 0.667 1; 1 0 0.667 1; 0.374 0 0.621 1; 0.333 0 0 1; 0.333 0 0 1; 0.333 0 0 1; 0 0 1 1" fill="freeze" /><g transform="scale(1,1) translate(0,0)"><g transform="matrix(1,0,0,1,169.848,105.227)" id="i21"><rect height="175" width="113" y="-87.5" x="-56.5" /></g></g></g></g></g></g><g transform="matrix(1,0,0,1,699.714,699.806)" id="i0"><g id="i3"><g transform="translate(0,-223.421)"><g transform="rotate(0)"><animateTransform repeatCount="indefinite" type="rotate" attributeName="transform" dur="16.05s" begin="0s" calcMode="spline" values="0; 0; -5; 5; 0; 0; -5; 5; 0; 0" keyTimes="0; 0.29595; 0.307373; 0.319834; 0.330218; 0.758048; 0.770509; 0.78297; 0.794393; 1" keySplines="0 0 1 1; 0.98 0 0.667 1; 1 0 0.667 1; 1 0 0.667 1; 0.374 0 0.621 1; 0.333 0 0 1; 0.333 0 0 1; 0.333 0 0 1; 0 0 1 1" fill="freeze" /><g transform="scale(1,1) translate(0,0)"><g transform="matrix(1,0,0,1,15.848,95.227)" id="i25"><g id="i26"><g transform="translate(-153,-80)"><animateTransform repeatCount="indefinite" type="translate" attributeName="transform" dur="16.05s" begin="0s" calcMode="spline" values="-153 -80; -153 -80; -153 0; -153 -80; -153 -80; -153 0; -153 -80; -153 -80; -153 0; -153 -80; -153 -80; -153 0; -153 -80; -153 -80" keyTimes="0; 0.062305; 0.093458; 0.125649; 0.311526; 0.342679; 0.37487; 0.564901; 0.596054; 0.628245; 0.806854; 0.838006; 0.870197; 1" keySplines="0 0 1 1; 0.333 0 0.667 1; 0.333 0 0.667 1; 0 0 1 1; 0.333 0 0.667 1; 0.333 0 0.667 1; 0 0 1 1; 0.333 0 0.667 1; 0.333 0 0.667 1; 0 0 1 1; 0.333 0 0.667 1; 0.333 0 0.667 1; 0 0 1 1" fill="freeze" /><g transform="scale(0,0)"><animateTransform repeatCount="indefinite" type="scale" attributeName="transform" dur="16.05s" begin="0s" calcMode="spline" values="0 0; 0 0; 0.8 0.8; 1 1; 0.6 0.6; 0 0; 0 0; 0.8 0.8; 1 1; 0.6 0.6; 0 0; 0 0; 0.8 0.8; 1 1; 0.6 0.6; 0 0; 0 0; 0.8 0.8; 1 1; 0.6 0.6; 0 0; 0 0" keyTimes="0; 0.062305; 0.082036; 0.093458; 0.113188; 0.125649; 0.311526; 0.331257; 0.342679; 0.362409; 0.37487; 0.563863; 0.583593; 0.595016; 0.614746; 0.627207; 0.806854; 0.826583; 0.838006; 0.857736; 0.870197; 1" keySplines="0 0 1 1; 0.333 0 0.667 0.632; 0.333 0.851 0.667 1; 0.333 0 0.667 0.273; 0.333 0.306 0.667 1; 0 0 1 1; 0.333 0 0.667 0.632; 0.333 0.851 0.667 1; 0.333 0 0.667 0.273; 0.333 0.306 0.667 1; 0 0 1 1; 0.333 0 0.667 0.632; 0.333 0.851 0.667 1; 0.333 0 0.667 0.273; 0.333 0.306 0.667 1; 0 0 1 1; 0.333 0 0.667 0.632; 0.333 0.851 0.667 1; 0.333 0 0.667 0.273; 0.333 0.306 0.667 1; 0 0 1 1" fill="freeze" /><g transform="translate(0,0)"><g id="i27"><ellipse ry="84.5" rx="84.5" cy="0" cx="0" fill="#fcd2bc" /></g><g id="i28"><path d="M0,-84.5C46.636,-84.5,84.5,-46.636,84.5,0C84.5,46.636,46.636,84.5,0,84.5C-46.636,84.5,-84.5,46.636,-84.5,0C-84.5,-46.636,-46.636,-84.5,0,-84.5Z" /></g></g></g></g></g></g></g></g></g></g></g><g transform="matrix(1,0,0,1,699.714,699.806)" id="i0"><g id="i3"><g transform="translate(0,-223.421)"><g transform="rotate(0)"><animateTransform repeatCount="indefinite" type="rotate" attributeName="transform" dur="16.05s" begin="0s" calcMode="spline" values="0; 0; -5; 5; 0; 0; -5; 5; 0; 0" keyTimes="0; 0.29595; 0.307373; 0.319834; 0.330218; 0.758048; 0.770509; 0.78297; 0.794393; 1" keySplines="0 0 1 1; 0.98 0 0.667 1; 1 0 0.667 1; 1 0 0.667 1; 0.374 0 0.621 1; 0.333 0 0 1; 0.333 0 0 1; 0.333 0 0 1; 0 0 1 1" fill="freeze" /><g transform="scale(1,1) translate(0,0)"><g transform="matrix(1,0,0,1,15.848,95.227)" id="i25"><g id="i29"><g transform="translate(153,-80)"><animateTransform repeatCount="indefinite" type="translate" attributeName="transform" dur="16.05s" begin="0s" calcMode="spline" values="153 -80; 153 -80; 153 0; 153 -80; 153 -80; 153 0; 153 -80; 153 -80; 153 0; 153 -80; 153 -80; 153 0; 153 -80; 153 -80" keyTimes="0; 0.062305; 0.093458; 0.125649; 0.311526; 0.342679; 0.37487; 0.564901; 0.596054; 0.628245; 0.806854; 0.838006; 0.870197; 1" keySplines="0 0 1 1; 0.333 0 0.667 1; 0.333 0 0.667 1; 0 0 1 1; 0.333 0 0.667 1; 0.333 0 0.667 1; 0 0 1 1; 0.333 0 0.667 1; 0.333 0 0.667 1; 0 0 1 1; 0.333 0 0.667 1; 0.333 0 0.667 1; 0 0 1 1" fill="freeze" /><g transform="scale(0,0)"><animateTransform repeatCount="indefinite" type="scale" attributeName="transform" dur="16.05s" begin="0s" calcMode="spline" values="0 0; 0 0; 0.8 0.8; 1 1; 0.6 0.6; 0 0; 0 0; 0.8 0.8; 1 1; 0.6 0.6; 0 0; 0 0; 0.8 0.8; 1 1; 0.6 0.6; 0 0; 0 0; 0.8 0.8; 1 1; 0.6 0.6; 0 0; 0 0" keyTimes="0; 0.062305; 0.082036; 0.093458; 0.113188; 0.125649; 0.311526; 0.331257; 0.342679; 0.362409; 0.37487; 0.563863; 0.583593; 0.595016; 0.614746; 0.627207; 0.806854; 0.826583; 0.838006; 0.857736; 0.870197; 1" keySplines="0 0 1 1; 0.333 0 0.667 0.632; 0.333 0.851 0.667 1; 0.333 0 0.667 0.273; 0.333 0.306 0.667 1; 0 0 1 1; 0.333 0 0.667 0.632; 0.333 0.851 0.667 1; 0.333 0 0.667 0.273; 0.333 0.306 0.667 1; 0 0 1 1; 0.333 0 0.667 0.632; 0.333 0.851 0.667 1; 0.333 0 0.667 0.273; 0.333 0.306 0.667 1; 0 0 1 1; 0.333 0 0.667 0.632; 0.333 0.851 0.667 1; 0.333 0 0.667 0.273; 0.333 0.306 0.667 1; 0 0 1 1" fill="freeze" /><g transform="translate(0,0)"><g id="i30"><ellipse ry="84.5" rx="84.5" cy="0" cx="0" fill="#fcd2bc" /></g><g id="i31"><path d="M0,-84.5C46.636,-84.5,84.5,-46.636,84.5,0C84.5,46.636,46.636,84.5,0,84.5C-46.636,84.5,-84.5,46.636,-84.5,0C-84.5,-46.636,-46.636,-84.5,0,-84.5Z" /></g></g></g></g></g></g></g></g></g></g></g><g transform="matrix(1,0,0,1,699.714,699.806)" id="i0"><g id="i3"><g transform="translate(0,-223.421)"><g transform="rotate(0)"><animateTransform repeatCount="indefinite" type="rotate" attributeName="transform" dur="16.05s" begin="0s" calcMode="spline" values="0; 0; -5; 5; 0; 0; -5; 5; 0; 0" keyTimes="0; 0.29595; 0.307373; 0.319834; 0.330218; 0.758048; 0.770509; 0.78297; 0.794393; 1" keySplines="0 0 1 1; 0.98 0 0.667 1; 1 0 0.667 1; 1 0 0.667 1; 0.374 0 0.621 1; 0.333 0 0 1; 0.333 0 0 1; 0.333 0 0 1; 0 0 1 1" fill="freeze" /><g transform="scale(1,1) translate(0,0)"><g transform="matrix(1,0,0,1,15.848,95.227)" id="i25"><rect height="169" width="475" y="-84.5" x="-237.5" /></g></g></g></g></g></g><g transform="matrix(1,0,0,1,699.714,699.806)" id="i0"><g id="i3"><g transform="translate(0,-223.421)"><g transform="rotate(0)"><animateTransform repeatCount="indefinite" type="rotate" attributeName="transform" dur="16.05s" begin="0s" calcMode="spline" values="0; 0; -5; 5; 0; 0; -5; 5; 0; 0" keyTimes="0; 0.29595; 0.307373; 0.319834; 0.330218; 0.758048; 0.770509; 0.78297; 0.794393; 1" keySplines="0 0 1 1; 0.98 0 0.667 1; 1 0 0.667 1; 1 0 0.667 1; 0.374 0 0.621 1; 0.333 0 0 1; 0.333 0 0 1; 0.333 0 0 1; 0 0 1 1" fill="freeze" /><g transform="scale(1,1) translate(0,0)"><rect height="651.77" width="1225.304" y="-325.885" x="-612.652" /></g></g></g></g></g><g transform="matrix(1,0,0,1,699.714,699.806)" id="i0"><g id="i32"><g transform="translate(-372.189,109.806)"><animateTransform repeatCount="indefinite" type="translate" attributeName="transform" dur="16.05s" begin="0s" calcMode="spline" values="-372.189 109.806; -372.189 109.806; -372.189 411.806; -372.189 109.806; -372.189 411.806; -372.189 411.806" keyTimes="0; 0.330218; 0.402907; 0.767394; 0.840083; 1" keySplines="0 0 1 1; 0 0 1 1; 0 0 1 1; 0 0 1 1; 0 0 1 1" fill="freeze" /><g transform="scale(0,0)"><animateTransform repeatCount="indefinite" type="scale" attributeName="transform" dur="16.05s" begin="0s" calcMode="spline" values="0 0; 0 0; 1 1; 1 1; 0 0; 0 0; 1 1; 1 1; 0 0; 0 0" keyTimes="0; 0.310488; 0.330218; 0.364486; 0.402907; 0.747664; 0.767393; 0.801662; 0.840083; 1" keySplines="0 0 1 1; 1 0 0.667 1; 0 0 1 1; 1 0 0.667 1; 0 0 1 1; 1 0 0.667 1; 0 0 1 1; 1 0 0.667 1; 0 0 1 1" fill="freeze" /><g transform="translate(-10.153,-22.5)"><g id="i32"><path fill="#7adaff" d="M9.689,0C17.419,16.667,28.607,45,10.689,45C-8.032,45,1.959,14.445,9.689,0Z" /></g></g></g></g></g></g><g transform="matrix(1,0,0,1,699.714,699.806)" id="i0"><g id="i33"><g transform="translate(-241.347,138.695)"><g transform="rotate(0)"><animateTransform repeatCount="indefinite" type="rotate" attributeName="transform" dur="16.05s" begin="0s" calcMode="spline" values="0; 0; 10; -10; 10; -10; 0; 0; 10; -10; 10; -10; 0; 0" keyTimes="0; 0.29595; 0.304258; 0.312565; 0.321911; 0.330218; 0.339564; 0.757009; 0.765317; 0.773624; 0.78297; 0.791277; 0.800623; 1" keySplines="0 0 1 1; 0.333 0 0.667 1; 0.333 0 0.667 1; 0.333 0 0.667 1; 0.333 0 0.667 1; 0.333 0 0.667 1; 0.167 0 0.667 1; 0.333 0 0.667 1; 0.333 0 0.667 1; 0.333 0 0.667 1; 0.333 0 0.667 1; 0.333 0 0.667 1; 0 0 1 1" fill="freeze" /><g transform="scale(1,1) translate(0,0)"><g transform="matrix(1,0,0,1,-159.695,-90.677)" id="i34"><g id="i34"><path fill="#000000" d="M232.389,181.288C272.146,180.244,307.078,167.599,319.389,161.288C319.389,161.288,303.389,91.288,303.389,91.288C296.074,99.021,267.996,114.355,214.389,117.288C147.375,120.955,121.94,54.177,103.389,32.288C84.838,10.398,43.418,-2.09,21.389,0.288C-0.64,2.666,-18.937,4.643,37.389,38.288C89.942,69.711,78.244,88.242,108.389,126.288C138.534,164.334,182.703,182.599,232.389,181.288Z" /></g></g></g></g></g></g></g><g transform="matrix(1,0,0,1,699.714,699.806)" id="i0"><g id="i33"><g transform="translate(-241.347,138.695)"><g transform="rotate(0)"><animateTransform repeatCount="indefinite" type="rotate" attributeName="transform" dur="16.05s" begin="0s" calcMode="spline" values="0; 0; 10; -10; 10; -10; 0; 0; 10; -10; 10; -10; 0; 0" keyTimes="0; 0.29595; 0.304258; 0.312565; 0.321911; 0.330218; 0.339564; 0.757009; 0.765317; 0.773624; 0.78297; 0.791277; 0.800623; 1" keySplines="0 0 1 1; 0.333 0 0.667 1; 0.333 0 0.667 1; 0.333 0 0.667 1; 0.333 0 0.667 1; 0.333 0 0.667 1; 0.167 0 0.667 1; 0.333 0 0.667 1; 0.333 0 0.667 1; 0.333 0 0.667 1; 0.333 0 0.667 1; 0.333 0 0.667 1; 0 0 1 1" fill="freeze" /><g transform="scale(1,1) translate(0,0)"><g transform="matrix(1,0,0,1,7.777,-12.501)" id="i35"><g id="i36"><g transform="translate(-58.755,-13.214) rotate(323.001)"><g transform="scale(0,0)"><animateTransform repeatCount="indefinite" type="scale" attributeName="transform" dur="16.05s" begin="0s" calcMode="spline" values="0 0; 0 0; 1 1; 1 1; 1 1; 0 0; 1 1; 0 0; 0 0; 0 0; 1 1; 1 1; 1 1; 0 0; 1 1; 0 0; 0 0" keyTimes="0; 0.182762; 0.192108; 0.193146; 0.271028; 0.283489; 0.294912; 0.338526; 0.504673; 0.687436; 0.696781; 0.697819; 0.779855; 0.792316; 0.803738; 0.84839; 1" keySplines="0 0 1 1; 0.333 0 0.667 1; 0 0 1 1; 0 0 1 1; 0.327 0.029 0.66 0.987; 0.328 0 0.662 1; 0.328 0.062 0.662 0.925; 0 0 1 1; 0 0 1 1; 0.333 0 0.667 1; 0 0 1 1; 0 0 1 1; 0.312 0.149 0.646 0.994; 0.319 0 0.653 1; 0.319 0.069 0.653 0.914; 0 0 1 1" fill="freeze" /><g transform="translate(-6.089,-9.054)"><g id="i36"><path fill="#a4d6e8" d="M6.317,0.001C9.677,-0.085,12.299,3.898,12.173,8.898C12.047,13.898,9.221,18.02,5.861,18.106C2.501,18.192,-0.122,14.209,0.004,9.209C0.13,4.209,2.957,0.087,6.317,0.001Z" /></g></g></g></g></g></g></g></g></g></g></g><g transform="matrix(1,0,0,1,699.714,699.806)" id="i0"><g id="i33"><g transform="translate(-241.347,138.695)"><g transform="rotate(0)"><animateTransform repeatCount="indefinite" type="rotate" attributeName="transform" dur="16.05s" begin="0s" calcMode="spline" values="0; 0; 10; -10; 10; -10; 0; 0; 10; -10; 10; -10; 0; 0" keyTimes="0; 0.29595; 0.304258; 0.312565; 0.321911; 0.330218; 0.339564; 0.757009; 0.765317; 0.773624; 0.78297; 0.791277; 0.800623; 1" keySplines="0 0 1 1; 0.333 0 0.667 1; 0.333 0 0.667 1; 0.333 0 0.667 1; 0.333 0 0.667 1; 0.333 0 0.667 1; 0.167 0 0.667 1; 0.333 0 0.667 1; 0.333 0 0.667 1; 0.333 0 0.667 1; 0.333 0 0.667 1; 0.333 0 0.667 1; 0 0 1 1" fill="freeze" /><g transform="scale(1,1) translate(0,0)"><g transform="matrix(1,0,0,1,7.777,-12.501)" id="i35"><g id="i37"><g transform="translate(-36.71,15.556) rotate(323.001)"><g transform="scale(0,0)"><animateTransform repeatCount="indefinite" type="scale" attributeName="transform" dur="16.05s" begin="0s" calcMode="spline" values="0 0; 0 0; 1 1; 1 1; 0 0; 1 1; 0 0; 0 0; 0 0; 1 1; 1 1; 0 0; 1 1; 0 0; 0 0" keyTimes="0; 0.149533; 0.159917; 0.271028; 0.283489; 0.294912; 0.338526; 0.504673; 0.654206; 0.66459; 0.779855; 0.792316; 0.803738; 0.84839; 1" keySplines="0 0 1 1; 0.333 0 0.667 1; 0 0 1 1; 0.329 0.02 0.663 0.987; 0.33 0 0.664 1; 0.33 0.056 0.663 0.93; 0 0 1 1; 0 0 1 1; 0.333 0 0.667 1; 0 0 1 1; 0.312 0.149 0.646 0.994; 0.319 0 0.653 1; 0.319 0.069 0.653 0.914; 0 0 1 1" fill="freeze" /><g transform="translate(-7.209,-10.532)"><g id="i37"><path fill="#a4d6e8" d="M7.474,0.002C11.453,-0.1,14.558,4.531,14.412,10.347C14.266,16.163,10.923,20.959,6.944,21.061C2.965,21.163,-0.141,16.532,0.005,10.716C0.151,4.9,3.495,0.104,7.474,0.002Z" /></g></g></g></g></g></g></g></g></g></g></g><g transform="matrix(1,0,0,1,699.714,699.806)" id="i0"><g id="i33"><g transform="translate(-241.347,138.695)"><g transform="rotate(0)"><animateTransform repeatCount="indefinite" type="rotate" attributeName="transform" dur="16.05s" begin="0s" calcMode="spline" values="0; 0; 10; -10; 10; -10; 0; 0; 10; -10; 10; -10; 0; 0" keyTimes="0; 0.29595; 0.304258; 0.312565; 0.321911; 0.330218; 0.339564; 0.757009; 0.765317; 0.773624; 0.78297; 0.791277; 0.800623; 1" keySplines="0 0 1 1; 0.333 0 0.667 1; 0.333 0 0.667 1; 0.333 0 0.667 1; 0.333 0 0.667 1; 0.333 0 0.667 1; 0.167 0 0.667 1; 0.333 0 0.667 1; 0.333 0 0.667 1; 0.333 0 0.667 1; 0.333 0 0.667 1; 0.333 0 0.667 1; 0 0 1 1" fill="freeze" /><g transform="scale(1,1) translate(0,0)"><g transform="matrix(1,0,0,1,7.777,-12.501)" id="i35"><g id="i38"><g transform="translate(-10.568,40.586) rotate(298.436)"><g transform="scale(0,0)"><animateTransform repeatCount="indefinite" type="scale" attributeName="transform" dur="16.05s" begin="0s" calcMode="spline" values="0 0; 0 0; 0 0; 1 1; 1 1; 0 0; 1 1; 0 0; 0 0; 0 0; 0 0; 1 1; 1 1; 0 0; 1 1; 0 0; 0 0" keyTimes="0; 0.113188; 0.122534; 0.124611; 0.271028; 0.283489; 0.294912; 0.341641; 0.504673; 0.617861; 0.627207; 0.629283; 0.779855; 0.792316; 0.803738; 0.84839; 1" keySplines="0 0 1 1; 0 0 1 1; 0.333 0 0.667 1; 0 0 1 1; 0.331 0.016 0.664 0.988; 0.331 0 0.665 1; 0.331 0.054 0.665 0.931; 0 0 1 1; 0 0 1 1; 0 0 1 1; 0.333 0 0.667 1; 0 0 1 1; 0.312 0.149 0.646 0.994; 0.319 0 0.653 1; 0.319 0.069 0.653 0.914; 0 0 1 1" fill="freeze" /><g transform="translate(-7.365,-10.304)"><g id="i38"><path fill="#a4d6e8" d="M7.596,0.001C11.661,-0.088,14.854,4.454,14.726,10.144C14.598,15.834,11.199,20.518,7.134,20.607C3.069,20.696,-0.124,16.155,0.004,10.465C0.132,4.775,3.531,0.09,7.596,0.001Z" /></g></g></g></g></g></g></g></g></g></g></g><g transform="matrix(1,0,0,1,699.714,699.806)" id="i0"><g id="i33"><g transform="translate(-241.347,138.695)"><g transform="rotate(0)"><animateTransform repeatCount="indefinite" type="rotate" attributeName="transform" dur="16.05s" begin="0s" calcMode="spline" values="0; 0; 10; -10; 10; -10; 0; 0; 10; -10; 10; -10; 0; 0" keyTimes="0; 0.29595; 0.304258; 0.312565; 0.321911; 0.330218; 0.339564; 0.757009; 0.765317; 0.773624; 0.78297; 0.791277; 0.800623; 1" keySplines="0 0 1 1; 0.333 0 0.667 1; 0.333 0 0.667 1; 0.333 0 0.667 1; 0.333 0 0.667 1; 0.333 0 0.667 1; 0.167 0 0.667 1; 0.333 0 0.667 1; 0.333 0 0.667 1; 0.333 0 0.667 1; 0.333 0 0.667 1; 0.333 0 0.667 1; 0 0 1 1" fill="freeze" /><g transform="scale(1,1) translate(0,0)"><g transform="matrix(1,0,0,1,7.777,-12.501)" id="i35"><g id="i39"><g transform="translate(25.044,52.045) rotate(273.364)"><g transform="scale(0,0)"><animateTransform repeatCount="indefinite" type="scale" attributeName="transform" dur="16.05s" begin="0s" calcMode="spline" values="0 0; 0 0; 1 1; 1 1; 0 0; 1 1; 0 0; 0 0; 0 0; 1 1; 1 1; 0 0; 1 1; 0 0; 0 0" keyTimes="0; 0.087227; 0.097612; 0.271028; 0.283489; 0.294912; 0.339564; 0.504673; 0.5919; 0.602284; 0.779855; 0.792316; 0.803738; 0.84839; 1" keySplines="0 0 1 1; 0.333 0 0.667 1; 0 0 1 1; 0.331 0.014 0.665 0.989; 0.332 0 0.665 1; 0.332 0.047 0.665 0.938; 0 0 1 1; 0 0 1 1; 0.333 0 0.667 1; 0 0 1 1; 0.312 0.149 0.646 0.994; 0.319 0 0.653 1; 0.319 0.069 0.653 0.914; 0 0 1 1" fill="freeze" /><g transform="translate(-8.155,-10.18)"><g id="i39"><path fill="#a4d6e8" d="M8.187,0C12.691,-0.014,16.328,4.533,16.31,10.155C16.292,15.777,12.627,20.346,8.123,20.36C3.619,20.374,-0.018,15.826,0,10.204C0.018,4.582,3.683,0.014,8.187,0Z" /></g></g></g></g></g></g></g></g></g></g></g><g transform="matrix(1,0,0,1,699.714,699.806)" id="i0"><g id="i33"><g transform="translate(-241.347,138.695)"><g transform="rotate(0)"><animateTransform repeatCount="indefinite" type="rotate" attributeName="transform" dur="16.05s" begin="0s" calcMode="spline" values="0; 0; 10; -10; 10; -10; 0; 0; 10; -10; 10; -10; 0; 0" keyTimes="0; 0.29595; 0.304258; 0.312565; 0.321911; 0.330218; 0.339564; 0.757009; 0.765317; 0.773624; 0.78297; 0.791277; 0.800623; 1" keySplines="0 0 1 1; 0.333 0 0.667 1; 0.333 0 0.667 1; 0.333 0 0.667 1; 0.333 0 0.667 1; 0.333 0 0.667 1; 0.167 0 0.667 1; 0.333 0 0.667 1; 0.333 0 0.667 1; 0.333 0 0.667 1; 0.333 0 0.667 1; 0.333 0 0.667 1; 0 0 1 1" fill="freeze" /><g transform="scale(1,1) translate(0,0)"><g transform="matrix(1,0,0,1,7.777,-12.501)" id="i35"><g id="i40"><g transform="translate(62.067,51.871) rotate(273.364)"><g transform="scale(0,0)"><animateTransform repeatCount="indefinite" type="scale" attributeName="transform" dur="16.05s" begin="0s" calcMode="spline" values="0 0; 0 0; 1 1; 1 1; 0 0; 1 1; 0 0; 0 0; 1 1; 1 1; 0 0; 1 1; 0 0; 0 0" keyTimes="0; 0.055036; 0.06542; 0.271028; 0.283489; 0.294912; 0.338526; 0.504673; 0.515057; 0.779855; 0.792316; 0.803738; 0.84839; 1" keySplines="0 0 1 1; 0.333 0 0.667 1; 0 0 1 1; 0.333 0.012 0.666 0.99; 0.333 0 0.667 1; 0.334 0.04 0.668 0.951; 0 0 1 1; 0.333 0 0.667 1; 0 0 1 1; 0.312 0.149 0.646 0.994; 0.319 0 0.653 1; 0.319 0.069 0.653 0.914; 0 0 1 1" fill="freeze" /><g transform="translate(-8.155,-10.18)"><g id="i40"><path fill="#a4d6e8" d="M8.187,0C12.691,-0.014,16.328,4.533,16.31,10.155C16.292,15.777,12.627,20.346,8.123,20.36C3.619,20.374,-0.018,15.826,0,10.204C0.018,4.582,3.683,0.014,8.187,0Z" /></g></g></g></g></g></g></g></g></g></g></g><g transform="matrix(1,0,0,1,699.714,699.806)" id="i0"><g id="i33"><g transform="translate(-241.347,138.695)"><g transform="rotate(0)"><animateTransform repeatCount="indefinite" type="rotate" attributeName="transform" dur="16.05s" begin="0s" calcMode="spline" values="0; 0; 10; -10; 10; -10; 0; 0; 10; -10; 10; -10; 0; 0" keyTimes="0; 0.29595; 0.304258; 0.312565; 0.321911; 0.330218; 0.339564; 0.757009; 0.765317; 0.773624; 0.78297; 0.791277; 0.800623; 1" keySplines="0 0 1 1; 0.333 0 0.667 1; 0.333 0 0.667 1; 0.333 0 0.667 1; 0.333 0 0.667 1; 0.333 0 0.667 1; 0.167 0 0.667 1; 0.333 0 0.667 1; 0.333 0 0.667 1; 0.333 0 0.667 1; 0.333 0 0.667 1; 0.333 0 0.667 1; 0 0 1 1" fill="freeze" /><g transform="scale(1,1) translate(0,0)"><g transform="matrix(1,0,0,1,7.777,-12.501)" id="i35"><g id="i41"><g transform="translate(95.796,45.205) rotate(273.364)"><g transform="scale(0,0)"><animateTransform repeatCount="indefinite" type="scale" attributeName="transform" dur="16.05s" begin="0s" calcMode="spline" values="0 0; 0 0; 1 1; 1 1; 0 0; 1 1; 0 0; 0 0; 1 1; 1 1; 0 0; 1 1; 0 0; 0 0" keyTimes="0; 0.020769; 0.032191; 0.271028; 0.283489; 0.294912; 0.338526; 0.470405; 0.481827; 0.779855; 0.792316; 0.803738; 0.84839; 1" keySplines="0 0 1 1; 0.333 0 0.667 1; 0 0 1 1; 0.334 0.011 0.668 0.99; 0.334 0 0.668 1; 0.335 0.04 0.669 0.946; 0 0 1 1; 0.333 0 0.667 1; 0 0 1 1; 0.312 0.149 0.646 0.994; 0.319 0 0.653 1; 0.319 0.069 0.653 0.914; 0 0 1 1" fill="freeze" /><g transform="translate(-8.155,-10.18)"><g id="i41"><path fill="#a4d6e8" d="M8.187,0C12.691,-0.014,16.328,4.533,16.31,10.155C16.292,15.777,12.627,20.346,8.123,20.36C3.619,20.374,-0.018,15.826,0,10.204C0.018,4.582,3.683,0.014,8.187,0Z" /></g></g></g></g></g></g></g></g></g></g></g><g transform="matrix(1,0,0,1,699.714,699.806)" id="i0"><g id="i33"><g transform="translate(-241.347,138.695)"><g transform="rotate(0)"><animateTransform repeatCount="indefinite" type="rotate" attributeName="transform" dur="16.05s" begin="0s" calcMode="spline" values="0; 0; 10; -10; 10; -10; 0; 0; 10; -10; 10; -10; 0; 0" keyTimes="0; 0.29595; 0.304258; 0.312565; 0.321911; 0.330218; 0.339564; 0.757009; 0.765317; 0.773624; 0.78297; 0.791277; 0.800623; 1" keySplines="0 0 1 1; 0.333 0 0.667 1; 0.333 0 0.667 1; 0.333 0 0.667 1; 0.333 0 0.667 1; 0.333 0 0.667 1; 0.167 0 0.667 1; 0.333 0 0.667 1; 0.333 0 0.667 1; 0.333 0 0.667 1; 0.333 0 0.667 1; 0.333 0 0.667 1; 0 0 1 1" fill="freeze" /><g transform="scale(1,1) translate(0,0)"><g transform="matrix(1,0,0,1,7.777,-12.501)" id="i35"><g id="i42"><g transform="translate(-79.089,-37.836) rotate(312.503)"><g transform="scale(0,0)"><animateTransform repeatCount="indefinite" type="scale" attributeName="transform" dur="16.05s" begin="0s" calcMode="spline" values="0 0; 0 0; 0 0; 1 1; 1 1; 0 0; 1 1; 0 0; 0 0; 0 0; 0 0; 1 1; 1 1; 0 0; 1 1; 0 0; 0 0" keyTimes="0; 0.208723; 0.220145; 0.222222; 0.271028; 0.283489; 0.294912; 0.339564; 0.504673; 0.713395; 0.724818; 0.726895; 0.779855; 0.792316; 0.803738; 0.84839; 1" keySplines="0 0 1 1; 0 0 1 1; 0.333 0 0.667 1; 0 0 1 1; 0.323 0.05 0.657 0.988; 0.326 0 0.659 1; 0.325 0.068 0.659 0.918; 0 0 1 1; 0 0 1 1; 0 0 1 1; 0.333 0 0.667 1; 0 0 1 1; 0.312 0.149 0.646 0.994; 0.319 0 0.653 1; 0.319 0.069 0.653 0.914; 0 0 1 1" fill="freeze" /><g transform="translate(-6.147,-8.6)"><g id="i42"><path fill="#a4d6e8" d="M6.374,0.002C9.767,-0.087,12.415,3.69,12.29,8.439C12.165,13.188,9.314,17.109,5.921,17.198C2.528,17.287,-0.121,13.51,0.004,8.761C0.129,4.012,2.981,0.091,6.374,0.002Z" /></g></g></g></g></g></g></g></g></g></g></g><g transform="matrix(1,0,0,1,699.714,699.806)" id="i0"><g id="i33"><g transform="translate(-241.347,138.695)"><g transform="rotate(0)"><animateTransform repeatCount="indefinite" type="rotate" attributeName="transform" dur="16.05s" begin="0s" calcMode="spline" values="0; 0; 10; -10; 10; -10; 0; 0; 10; -10; 10; -10; 0; 0" keyTimes="0; 0.29595; 0.304258; 0.312565; 0.321911; 0.330218; 0.339564; 0.757009; 0.765317; 0.773624; 0.78297; 0.791277; 0.800623; 1" keySplines="0 0 1 1; 0.333 0 0.667 1; 0.333 0 0.667 1; 0.333 0 0.667 1; 0.333 0 0.667 1; 0.333 0 0.667 1; 0.167 0 0.667 1; 0.333 0 0.667 1; 0.333 0 0.667 1; 0.333 0 0.667 1; 0.333 0 0.667 1; 0.333 0 0.667 1; 0 0 1 1" fill="freeze" /><g transform="scale(1,1) translate(0,0)"><g transform="matrix(1,0,0,1,7.777,-12.501)" id="i35"><g id="i43"><g transform="translate(-100.082,-54.388)"><g transform="scale(0,0)"><animateTransform repeatCount="indefinite" type="scale" attributeName="transform" dur="16.05s" begin="0s" calcMode="spline" values="0 0; 0 0; 1 1; 1 1; 0 0; 1 1; 0 0; 0 0; 0 0; 1 1; 1 1; 0 0; 1 1; 0 0; 0 0" keyTimes="0; 0.239876; 0.251298; 0.271028; 0.283489; 0.294912; 0.339564; 0.504673; 0.744548; 0.755971; 0.779855; 0.792316; 0.803738; 0.84839; 1" keySplines="0 0 1 1; 0.333 0 0.667 1; 0 0 1 1; 0.312 0.149 0.646 0.994; 0.319 0 0.653 1; 0.319 0.069 0.653 0.914; 0 0 1 1; 0 0 1 1; 0.333 0 0.667 1; 0 0 1 1; 0.312 0.149 0.646 0.994; 0.319 0 0.653 1; 0.319 0.069 0.653 0.914; 0 0 1 1" fill="freeze" /><g transform="translate(-6.354,-6.395)"><g id="i43"><path fill="#a4d6e8" d="M10.355,1.895C12.933,4.386,13.581,8.333,11.355,10.895C9.127,13.455,4.933,13.386,2.355,10.895C-0.223,8.404,-0.873,4.455,1.355,1.895C3.581,-0.667,7.777,-0.596,10.355,1.895Z" /></g></g></g></g></g></g></g></g></g></g></g><g transform="matrix(1,0,0,1,699.714,699.806)" id="i0"><g id="i33"><g transform="translate(-241.347,138.695)"><g transform="rotate(0)"><animateTransform repeatCount="indefinite" type="rotate" attributeName="transform" dur="16.05s" begin="0s" calcMode="spline" values="0; 0; 10; -10; 10; -10; 0; 0; 10; -10; 10; -10; 0; 0" keyTimes="0; 0.29595; 0.304258; 0.312565; 0.321911; 0.330218; 0.339564; 0.757009; 0.765317; 0.773624; 0.78297; 0.791277; 0.800623; 1" keySplines="0 0 1 1; 0.333 0 0.667 1; 0.333 0 0.667 1; 0.333 0 0.667 1; 0.333 0 0.667 1; 0.333 0 0.667 1; 0.167 0 0.667 1; 0.333 0 0.667 1; 0.333 0 0.667 1; 0.333 0 0.667 1; 0.333 0 0.667 1; 0.333 0 0.667 1; 0 0 1 1" fill="freeze" /><g transform="scale(1,1) translate(0,0)"><g transform="matrix(1,0,0,1,7.777,-12.501)" id="i35"><rect height="121.566" width="212.873" y="-60.783" x="-106.436" /></g></g></g></g></g></g><g transform="matrix(1,0,0,1,699.714,699.806)" id="i0"><g id="i33"><g transform="translate(-241.347,138.695)"><g transform="rotate(0)"><animateTransform repeatCount="indefinite" type="rotate" attributeName="transform" dur="16.05s" begin="0s" calcMode="spline" values="0; 0; 10; -10; 10; -10; 0; 0; 10; -10; 10; -10; 0; 0" keyTimes="0; 0.29595; 0.304258; 0.312565; 0.321911; 0.330218; 0.339564; 0.757009; 0.765317; 0.773624; 0.78297; 0.791277; 0.800623; 1" keySplines="0 0 1 1; 0.333 0 0.667 1; 0.333 0 0.667 1; 0.333 0 0.667 1; 0.333 0 0.667 1; 0.333 0 0.667 1; 0.167 0 0.667 1; 0.333 0 0.667 1; 0.333 0 0.667 1; 0.333 0 0.667 1; 0.333 0 0.667 1; 0.333 0 0.667 1; 0 0 1 1" fill="freeze" /><g transform="scale(1,1) translate(0,0)"><rect height="181.354" width="319.389" y="-90.677" x="-159.695" /></g></g></g></g></g><g transform="matrix(1,0,0,1,699.714,699.806)" id="i0"><rect height="1098.612" width="1225.304" y="-549.306" x="-612.652" /></g></svg>